<?xml version="1.0" standalone="no"?>
<!DOCTYPE svg PUBLIC "-//W3C//DTD SVG 20010904//EN"
 "http://www.w3.org/TR/2001/REC-SVG-20010904/DTD/svg10.dtd">
<svg version="1.0" xmlns="http://www.w3.org/2000/svg"
 width="1280.000000pt" height="853.000000pt" viewBox="0 0 1280.000000 853.000000"
 preserveAspectRatio="xMidYMid meet">

<g transform="translate(0.000000,853.000000) scale(0.100000,-0.100000)"
fill="#000000" stroke="none">
<path d="M0 6365 c0 -1191 3 -2165 8 -2165 4 0 25 5 47 10 62 16 239 49 348
65 371 56 894 44 1292 -29 1026 -187 1977 -745 2612 -1531 155 -193 268 -351
347 -484 29 -50 32 -62 20 -71 -7 -7 -11 -16 -8 -21 9 -15 24 -10 24 8 0 15 2
14 14 -3 11 -14 11 -21 3 -26 -8 -5 -6 -8 6 -8 24 0 39 -43 26 -77 -7 -19 -7
-29 0 -31 6 -2 11 -10 11 -18 0 -8 5 -14 10 -14 6 0 10 7 10 15 0 8 -4 15 -10
15 -5 0 -10 12 -10 27 0 36 9 25 60 -69 37 -69 40 -79 27 -93 -16 -15 -47 -11
-47 7 0 6 6 8 14 5 22 -9 27 4 11 27 -8 11 -15 27 -15 36 0 9 -9 16 -20 17
-17 2 -20 -2 -15 -20 6 -21 6 -22 -9 -3 -9 11 -16 25 -16 32 0 7 -7 20 -16 29
-10 10 -13 22 -8 33 18 42 15 53 -12 46 -20 -5 -25 -3 -22 7 2 7 -4 23 -14 33
-10 11 -16 26 -14 33 3 7 0 13 -7 13 -7 0 -20 12 -29 28 -9 15 -25 36 -35 47
-10 11 -24 31 -31 45 -7 14 -21 36 -32 50 -18 24 -19 24 -55 7 -21 -10 -40
-16 -42 -13 -3 3 11 13 31 22 20 10 36 21 36 24 0 4 -15 27 -33 51 -36 49 -54
75 -93 133 -37 55 -61 79 -72 72 -6 -3 -8 2 -6 11 5 20 -103 143 -125 143 -7
0 -10 4 -7 8 3 5 -4 18 -14 30 -11 12 -20 24 -20 27 0 4 -28 36 -63 72 -96
102 -97 102 -97 112 0 5 -8 12 -18 15 -9 3 -40 27 -68 53 -68 65 -102 93 -114
93 -5 0 -7 7 -4 15 4 10 0 15 -15 15 -12 0 -21 4 -21 9 0 6 -28 9 -61 8 -42
-2 -63 2 -66 10 -3 7 -13 13 -22 13 -14 1 -13 3 3 15 18 14 17 15 -23 15 -37
0 -42 3 -37 18 5 15 5 15 -8 -1 -11 -14 -21 -17 -38 -11 -20 6 -21 5 -9 -10 7
-9 9 -16 4 -16 -14 0 -36 46 -29 59 4 6 0 11 -8 11 -9 0 -16 7 -16 15 0 17
-16 20 -25 5 -3 -5 -11 -10 -17 -10 -6 0 -3 9 7 20 19 21 15 37 -6 24 -19 -12
-59 -14 -59 -3 0 5 7 9 15 9 8 0 15 7 15 15 0 8 -3 14 -7 14 -21 -3 -33 3 -33
17 0 8 -4 13 -9 10 -5 -3 -7 -15 -4 -26 3 -11 0 -20 -6 -20 -10 0 -15 14 -12
34 1 5 -1 16 -4 25 -6 14 -8 14 -20 -2 -11 -15 -13 -16 -19 -2 -3 9 1 18 9 21
12 5 11 10 -7 29 -23 24 -43 23 -34 -1 3 -8 -1 -14 -9 -14 -8 0 -15 7 -15 15
0 8 -5 15 -11 15 -5 0 -9 -10 -7 -22 2 -11 -2 -23 -8 -25 -7 -2 -10 9 -9 29 2
18 1 36 -2 40 -6 12 -33 -3 -33 -19 0 -8 -5 -11 -11 -8 -6 4 -8 13 -5 21 3 7
1 16 -4 19 -6 4 -10 -1 -10 -9 0 -9 -4 -16 -10 -16 -5 0 -10 5 -10 10 0 6 -7
10 -16 10 -10 0 -14 6 -11 15 4 8 2 17 -3 20 -6 4 -10 1 -10 -4 0 -6 -4 -11
-10 -11 -5 0 -10 9 -10 20 0 11 5 20 11 20 5 0 7 5 4 10 -10 17 -25 11 -25 -9
0 -23 -49 -39 -61 -19 -12 18 -11 28 1 28 6 0 10 -7 10 -16 0 -19 25 -13 25 7
0 8 4 20 8 26 6 10 2 11 -20 2 -40 -15 -83 -19 -83 -8 0 6 -4 7 -10 4 -6 -4
-7 1 -3 11 5 14 1 16 -26 12 -17 -3 -34 -1 -37 4 -3 4 6 8 20 8 14 0 28 5 31
10 4 7 -10 9 -39 6 -25 -2 -49 0 -52 5 -3 5 -13 8 -22 7 -11 -2 -16 3 -16 15
1 9 -4 17 -12 17 -8 0 -14 -4 -14 -10 0 -5 -6 -7 -14 -4 -8 3 -24 0 -37 -6
-20 -11 -21 -10 -16 9 4 18 2 20 -18 15 -14 -3 -24 0 -28 8 -2 8 -18 14 -33
13 -16 0 -32 4 -35 9 -7 9 -29 0 -29 -13 0 -10 79 -60 175 -110 44 -22 109
-63 145 -90 36 -27 79 -57 96 -67 18 -11 66 -40 108 -66 42 -27 107 -57 144
-68 37 -11 81 -25 98 -30 17 -6 36 -10 43 -10 11 0 216 -78 271 -103 14 -6 59
-43 100 -82 41 -39 120 -114 175 -166 55 -51 113 -109 130 -128 28 -33 29 -34
10 -49 -16 -12 -17 -14 -3 -9 10 3 20 2 23 -4 4 -5 10 -7 14 -4 5 2 16 -4 26
-15 10 -11 13 -20 7 -20 -6 0 -14 4 -17 10 -13 21 -24 8 -20 -23 5 -38 23 -90
24 -68 1 11 4 11 16 1 8 -7 15 -18 15 -25 0 -7 18 -31 40 -54 23 -23 39 -48
38 -56 -2 -8 23 -39 56 -69 37 -35 57 -60 53 -69 -4 -10 12 -31 42 -59 41 -37
49 -50 55 -93 5 -27 17 -61 28 -75 10 -14 42 -63 70 -110 27 -47 53 -87 58
-90 4 -3 10 -18 14 -35 4 -16 16 -49 28 -73 23 -48 18 -77 -12 -69 -43 11 -39
-63 11 -234 17 -57 37 -131 44 -164 7 -33 20 -94 29 -135 9 -41 17 -91 18
-110 0 -19 7 -66 14 -103 8 -38 14 -83 14 -101 0 -18 2 -35 5 -38 3 -3 7 -39
9 -79 5 -94 22 -160 48 -177 10 -8 17 -20 14 -28 -3 -8 -1 -14 4 -14 5 0 7 -6
4 -14 -3 -7 -18 -13 -34 -12 -22 1 -30 6 -30 20 0 27 -6 17 -13 -20 -5 -26 -3
-33 14 -37 16 -4 18 -3 9 8 -6 8 -7 16 -2 19 10 6 36 -20 45 -47 4 -11 1 -20
-8 -23 -8 -4 -15 -10 -15 -16 0 -5 4 -7 9 -3 14 8 31 -28 31 -63 0 -34 9 -45
24 -32 9 6 12 -8 13 -51 2 -55 0 -60 -26 -73 -15 -8 -32 -11 -37 -7 -16 15
-116 32 -128 22 -6 -5 -33 -9 -61 -9 -27 -1 -72 -3 -99 -5 -42 -3 -50 0 -64
20 -8 13 -21 22 -28 19 -7 -3 -21 12 -33 35 -25 48 -26 49 -3 49 10 0 21 3 24
6 8 7 -21 64 -33 64 -12 0 -11 -14 1 -26 8 -8 7 -14 -3 -23 -12 -9 -15 -4 -20
31 -3 23 -10 44 -16 46 -5 2 -8 9 -5 16 7 18 -23 83 -43 95 -17 10 -16 10 2
11 17 1 18 2 5 13 -8 7 -17 21 -18 32 -5 25 -19 34 -42 28 -9 -3 -20 2 -23 10
-3 9 -19 15 -40 15 -37 0 -74 16 -95 41 -8 9 -11 10 -7 3 15 -28 14 -72 0 -72
-9 0 -15 10 -15 23 0 21 -19 62 -20 42 0 -5 -5 -3 -10 5 -5 8 -10 10 -10 4 0
-6 -7 -11 -15 -11 -11 0 -15 8 -13 26 3 24 0 26 -36 26 -34 0 -41 -4 -57 -34
-21 -39 -15 -57 7 -26 8 11 22 19 30 17 8 -2 14 4 14 13 0 20 16 19 24 -1 4
-10 -1 -22 -11 -31 -16 -12 -13 -13 23 -8 l42 6 4 -36 c3 -28 1 -35 -11 -32
-9 1 -15 10 -13 20 2 14 -3 16 -33 12 -19 -2 -35 0 -35 5 0 6 -5 10 -11 10 -5
0 -8 -4 -5 -8 3 -5 -8 -6 -25 -4 -29 4 -33 10 -29 47 1 16 -1 18 -11 8 -7 -7
-17 -13 -21 -13 -14 0 -9 28 6 33 20 8 14 57 -8 69 -16 9 -16 11 -1 29 20 21
80 43 95 34 5 -3 16 -3 23 2 8 5 0 10 -23 13 -30 4 -35 8 -32 30 2 13 11 30
20 37 15 11 12 12 -15 7 -25 -5 -33 -2 -42 14 -15 28 -14 35 4 28 13 -4 13 -2
5 14 -15 28 -13 35 15 50 14 8 23 20 21 27 -3 7 3 17 12 22 14 9 13 10 -10 11
-33 0 -38 19 -5 21 18 1 19 2 3 6 -14 4 -17 11 -12 36 5 30 5 31 -9 13 -15
-19 -15 -19 -15 2 0 15 8 24 25 28 25 6 36 26 13 23 -31 -4 -39 2 -33 21 3 11
2 20 -4 20 -5 0 -8 19 -6 42 2 24 -3 51 -11 64 -13 18 -12 23 2 35 14 12 14
14 -5 21 -12 4 -21 14 -21 22 0 7 -9 16 -20 19 -16 4 -20 12 -18 36 1 17 6 31
10 31 4 0 8 4 8 9 0 5 -11 9 -25 9 -14 0 -28 2 -31 5 -10 10 7 27 27 27 12 0
19 7 19 20 0 11 -5 20 -11 20 -5 0 -7 5 -4 10 10 17 -4 46 -28 59 l-22 12 22
-5 c32 -6 46 15 27 42 -8 12 -19 20 -24 17 -4 -3 -10 0 -12 6 -2 7 -13 9 -26
5 -18 -6 -21 -12 -16 -29 3 -12 3 -19 -1 -15 -5 4 -14 3 -22 -4 -18 -15 -61
-19 -68 -7 -12 18 -26 9 -19 -13 4 -14 -20 2 -72 50 -70 63 -161 124 -182 121
-22 -4 -32 3 -32 21 0 27 -27 15 -34 -16 -7 -25 -20 -31 -31 -14 -3 5 1 10 10
10 9 0 13 4 10 10 -4 6 -15 4 -29 -5 -12 -8 -26 -12 -31 -8 -4 5 -5 3 -2 -3 8
-14 -37 -39 -52 -30 -17 11 -13 25 14 51 13 14 20 25 15 25 -6 0 -10 5 -10 11
0 6 9 8 20 4 11 -4 34 1 52 9 40 21 58 20 59 -1 0 -11 3 -13 6 -5 3 7 23 12
48 12 35 0 47 5 56 21 8 16 8 24 -1 33 -9 8 -14 8 -17 0 -2 -7 -36 -9 -105 -6
-92 4 -101 3 -95 -12 7 -19 -5 -15 -36 12 -10 9 -17 11 -17 4 0 -6 5 -14 10
-17 6 -3 10 -16 10 -27 0 -20 -1 -20 -18 -5 -28 26 -32 21 -17 -23 9 -25 10
-42 4 -46 -17 -10 -38 16 -33 41 4 22 1 24 -24 21 -40 -4 -52 -13 -52 -39 0
-12 -12 -31 -27 -41 l-26 -19 7 66 c4 44 3 67 -4 68 -15 2 -22 4 -54 18 -30
12 -42 9 -32 -8 4 -6 13 -8 21 -4 8 3 15 0 15 -7 0 -6 -9 -14 -20 -17 -11 -3
-20 -13 -20 -23 0 -13 -6 -17 -20 -13 -22 6 -25 14 -9 30 7 7 4 12 -10 16 -12
3 -24 1 -27 -4 -3 -5 -14 -9 -25 -9 -10 0 -19 -4 -19 -10 0 -5 6 -7 13 -5 10
5 44 -33 35 -39 -2 -2 -23 2 -48 7 -39 8 -42 11 -27 22 16 11 15 13 -4 30 -19
18 -20 18 -26 -3 -5 -19 -12 -22 -63 -22 -33 0 -64 -5 -72 -12 -7 -7 -29 -25
-48 -39 -20 -15 -41 -43 -49 -65 -7 -21 -35 -65 -62 -96 -27 -31 -49 -64 -49
-72 0 -19 -16 -21 -24 -3 -3 6 -3 2 0 -10 6 -24 -5 -30 -22 -13 -6 6 -15 6
-24 0 -10 -7 -11 -10 -2 -10 6 0 12 -4 12 -10 0 -5 -7 -7 -15 -4 -9 4 -15 0
-15 -10 0 -9 -8 -16 -17 -16 -14 0 -15 2 -4 9 7 5 9 11 4 14 -13 8 -98 -46
-140 -89 -53 -55 -92 -181 -88 -287 1 -37 -1 -68 -6 -69 -5 0 -15 -1 -21 -2
-7 -1 -15 -9 -18 -19 -7 -26 -25 -21 -25 8 0 13 -9 30 -19 38 -22 16 -15 34
18 48 19 8 19 9 1 7 -25 -3 -72 28 -53 35 20 7 2 19 -27 19 -14 0 -25 4 -25 9
0 8 6 10 43 13 18 1 29 36 16 52 -14 17 -5 44 16 44 8 0 15 5 15 10 0 7 8 6
23 -1 19 -11 21 -10 9 3 -17 21 -62 30 -55 11 9 -24 -28 -14 -58 16 -19 20
-29 40 -29 60 0 32 -16 41 -37 20 -7 -7 -24 -4 -56 13 -40 20 -62 40 -39 37
19 -3 23 2 12 16 -7 9 -10 19 -6 22 4 4 10 3 14 -3 4 -5 19 -11 35 -12 21 -1
27 3 27 17 0 11 9 23 20 26 11 4 18 10 15 15 -3 5 -12 7 -20 3 -8 -3 -15 -1
-15 4 0 14 44 63 55 63 6 0 16 14 24 30 7 17 29 47 48 68 41 43 53 64 53 90 0
19 -25 37 -43 33 -5 -1 -7 4 -4 11 2 7 14 12 26 11 11 -2 21 2 21 7 0 6 5 10
11 10 6 0 8 -9 4 -20 -3 -11 -2 -20 4 -20 5 0 13 -9 16 -20 3 -11 13 -20 22
-20 13 0 13 3 2 16 -10 13 -10 17 0 24 10 6 9 12 -8 29 -25 25 -27 58 -5 82
10 11 12 19 5 24 -6 3 -11 1 -11 -4 0 -6 -5 -11 -11 -11 -6 0 -9 6 -6 14 3 7
1 18 -5 24 -15 15 8 42 34 42 22 0 20 20 -3 31 -8 4 -31 15 -51 25 -27 13 -38
25 -38 40 0 31 24 49 40 29 10 -12 66 -45 77 -45 1 0 3 5 3 11 0 6 9 24 21 41
24 33 19 49 -7 24 -21 -22 -29 -14 -12 13 15 25 31 27 49 5 11 -14 13 -14 21
1 5 8 13 13 19 10 5 -4 7 12 4 39 -3 36 -1 46 13 49 14 4 13 6 -5 12 -15 5
-23 15 -23 30 0 18 -4 22 -20 18 -14 -4 -19 -11 -15 -23 6 -20 -20 -36 -31
-18 -4 6 -22 8 -44 4 l-37 -6 7 41 c4 22 5 49 3 60 -4 14 0 19 16 19 21 0 21
1 6 29 -16 32 -14 35 25 44 22 5 29 0 50 -32 13 -22 33 -45 43 -53 11 -7 28
-20 37 -28 25 -22 58 -40 74 -40 21 0 31 -21 15 -31 -19 -11 -8 -18 42 -27 43
-8 44 -9 42 -45 -3 -46 12 -49 21 -4 4 17 10 27 14 21 4 -5 32 -10 62 -9 48 1
91 13 200 59 8 3 -3 4 -25 2 -25 -2 -45 2 -53 10 -7 8 -22 14 -32 14 -29 0
-25 18 5 26 47 12 135 -16 135 -42 0 -12 6 -14 33 -9 53 12 70 21 116 59 23
20 49 36 57 36 8 0 14 5 14 10 0 6 6 10 13 10 16 0 49 33 46 46 -4 16 13 44
26 44 8 0 17 10 21 22 3 12 13 28 20 36 8 7 14 27 14 43 0 16 4 29 8 29 4 0 8
9 9 21 1 13 -3 19 -11 16 -15 -6 -62 79 -72 130 -6 28 -41 78 -119 166 -14 15
-25 32 -25 37 0 23 -195 210 -249 238 -69 37 -195 71 -238 65 -22 -4 -33 -1
-33 7 0 18 -79 4 -112 -20 -15 -11 -32 -20 -38 -20 -15 0 -82 -44 -104 -69
-11 -12 -14 -21 -7 -21 21 0 -49 -90 -75 -96 -14 -4 -28 -4 -31 0 -4 3 3 6 15
6 12 0 22 4 22 8 0 4 -17 7 -37 5 -120 -8 -135 -7 -152 16 -11 14 -32 24 -58
28 l-42 5 -11 -41 c-6 -22 -14 -41 -18 -41 -19 1 -31 19 -34 54 -2 22 -8 41
-13 43 -7 2 -9 -12 -7 -37 5 -47 -4 -90 -19 -90 -5 0 -9 6 -7 13 3 20 -12 87
-21 87 -15 0 -20 -13 -12 -29 5 -9 11 -35 14 -58 4 -38 3 -43 -15 -43 -10 0
-28 -5 -39 -11 -11 -5 -34 -9 -52 -7 -34 4 -34 4 36 30 31 12 35 23 11 32 -18
7 -51 -11 -85 -45 -20 -20 -20 -22 -4 -40 19 -20 20 -16 -30 -149 -19 -52 -27
-137 -14 -146 5 -3 9 2 9 10 0 22 43 21 62 -1 26 -30 49 -83 45 -101 -4 -14
-6 -13 -12 6 -8 23 -8 23 -22 -5 -14 -27 -13 -77 2 -116 5 -12 3 -17 -6 -15
-8 2 -12 -3 -10 -12 12 -50 -4 -137 -27 -144 -17 -6 -47 -66 -33 -66 4 0 22
16 41 35 34 35 58 38 40 5 -14 -26 -13 -33 5 -27 24 10 27 -11 6 -32 -13 -13
-18 -27 -14 -37 6 -15 7 -15 14 3 16 44 31 37 24 -11 -6 -35 -4 -46 6 -46 8
-1 3 -7 -11 -15 -14 -8 -22 -14 -18 -15 4 0 -1 -15 -12 -32 -11 -18 -20 -39
-20 -45 0 -7 -15 -34 -34 -60 -18 -27 -44 -70 -57 -98 -13 -27 -34 -60 -46
-72 -26 -25 -30 -43 -9 -43 19 0 132 94 147 122 10 18 13 19 20 6 11 -19 -14
-84 -41 -107 -10 -9 -34 -41 -52 -72 -32 -53 -55 -86 -107 -150 -30 -38 -23
-63 16 -48 15 6 42 19 60 30 19 12 33 16 33 9 0 -6 -13 -19 -30 -28 -22 -13
-34 -30 -45 -69 -8 -28 -15 -61 -15 -73 0 -29 -17 -60 -48 -88 -34 -30 -42
-19 -9 14 28 28 41 63 52 133 6 43 5 44 -13 28 -10 -9 -24 -17 -30 -17 -7 0
-12 -4 -12 -9 0 -5 -9 -13 -20 -16 -11 -4 -18 -11 -14 -16 3 -5 9 -7 14 -4 5
3 11 1 15 -5 4 -6 -5 -10 -19 -10 -31 0 -35 -15 -6 -23 28 -7 25 -26 -2 -20
-17 3 -19 2 -10 -5 12 -8 12 -13 0 -33 -13 -24 -28 -39 -38 -39 -3 0 -6 29 -7
64 0 57 -4 69 -32 104 -17 22 -31 45 -31 50 0 17 -71 65 -157 106 -29 14 -53
30 -53 37 0 6 -11 24 -25 41 -21 25 -25 39 -25 100 0 61 -2 69 -15 58 -12 -10
-15 -10 -15 3 0 8 4 17 9 19 13 4 26 58 14 58 -5 0 -15 -16 -22 -35 -7 -19
-18 -35 -26 -35 -11 0 24 83 65 150 15 26 24 54 24 85 1 24 17 47 74 104 39
40 72 77 72 82 0 4 21 38 46 74 26 36 44 69 41 72 -8 8 -28 -7 -22 -17 7 -12
-22 -33 -36 -24 -9 5 -7 11 7 21 16 12 17 15 4 23 -8 5 -23 7 -33 4 -10 -3
-18 0 -19 8 0 7 -2 18 -2 23 -1 6 -5 16 -10 24 -10 16 -13 32 -24 147 -8 89 0
138 27 169 32 35 33 64 3 82 -45 28 -82 66 -82 84 0 10 -7 24 -15 33 -15 14
-26 72 -26 134 0 38 -5 39 -36 10 -13 -12 -26 -18 -30 -14 -4 4 -1 11 6 15 11
7 11 10 0 17 -7 4 -14 3 -17 -4 -2 -7 -8 -9 -14 -6 -17 11 1 -67 22 -97 20
-28 16 -46 -7 -28 -10 9 -13 5 -13 -24 0 -19 3 -42 6 -51 11 -29 20 -17 17 21
-3 30 -2 34 7 21 6 -9 13 -54 16 -100 3 -46 11 -89 17 -96 8 -10 7 -16 -4 -22
-10 -7 -15 -4 -17 8 -7 40 -15 47 -21 17 -10 -44 -2 -76 18 -73 10 2 17 -5 19
-22 2 -14 8 -29 13 -35 15 -15 11 -65 -6 -65 -18 0 -20 -17 -3 -22 8 -3 5 -15
-11 -36 -37 -52 -69 -35 -51 27 13 48 5 94 -30 166 -23 48 -36 63 -43 56 -15
-15 -27 -14 -27 4 0 7 -8 19 -18 24 -15 9 -9 13 15 10 4 0 11 9 15 21 7 19 10
20 23 6 17 -17 20 -30 5 -21 -5 3 -10 0 -10 -7 0 -13 49 -22 51 -9 0 3 2 15 4
26 2 11 -1 23 -7 26 -9 6 -8 12 2 23 28 35 -25 39 -90 7 -24 -11 -52 -21 -61
-21 -10 0 -32 -12 -50 -27 -17 -15 -56 -39 -87 -54 -52 -26 -54 -28 -29 -34
15 -4 29 -17 33 -28 4 -12 15 -32 25 -45 17 -22 16 -58 -1 -47 -15 9 -22 -15
-10 -30 17 -21 23 -19 40 13 12 20 14 35 6 60 -10 36 -8 40 20 45 30 4 44 16
44 38 0 10 5 19 10 19 6 0 10 -16 10 -35 0 -27 -3 -33 -16 -28 -14 5 -14 3 -4
-14 9 -14 10 -28 3 -49 -7 -21 -6 -38 4 -62 12 -28 11 -32 -2 -32 -10 0 -15
-10 -15 -35 0 -21 -5 -34 -11 -32 -6 1 -14 -4 -16 -11 -4 -11 1 -10 24 1 41
22 57 56 51 116 -3 28 -1 51 3 51 5 0 9 -7 9 -15 0 -8 5 -15 10 -15 6 0 10 5
10 11 0 5 5 7 10 4 13 -8 13 -52 -1 -60 -6 -4 -8 -14 -5 -22 14 -36 -55 -124
-74 -93 -4 6 -7 -3 -8 -21 -1 -48 -19 -59 -106 -64 -106 -7 -136 12 -103 66
10 17 9 22 -5 30 -18 10 -18 10 18 97 11 27 23 42 33 40 21 -4 35 -66 21 -96
-12 -27 -6 -42 11 -25 11 11 14 56 7 128 -2 30 -7 39 -19 37 -9 -1 -20 5 -23
14 -5 13 -9 14 -21 4 -8 -7 -26 -10 -40 -6 -14 4 -25 2 -25 -4 0 -5 -4 -10
-10 -10 -13 0 -13 37 -1 44 5 4 11 0 14 -6 2 -7 7 -10 11 -6 4 3 2 15 -5 27
-17 27 -5 37 49 40 6 1 12 6 12 12 0 10 -17 10 -59 -2 -7 -2 -15 1 -18 8 -2 6
5 13 16 15 17 3 18 5 6 21 -13 18 -14 18 -32 0 -18 -18 -53 -19 -64 -1 -4 7
-14 6 -28 -1 -27 -15 -27 -1 -1 27 19 20 56 28 97 23 7 -1 13 7 13 19 0 17 -4
19 -25 14 -21 -5 -25 -3 -26 17 0 13 -3 19 -6 12 -3 -10 -9 -10 -24 0 -15 9
-23 9 -38 0 -15 -10 -20 -9 -25 2 -6 17 -42 20 -51 5 -4 -6 -10 -8 -14 -6 -4
3 -9 -42 -10 -99 -2 -79 1 -105 10 -105 10 0 10 -3 1 -12 -18 -18 -17 -454 1
-461 9 -4 9 -6 0 -6 -10 -1 -13 -26 -13 -91 0 -80 2 -90 18 -90 21 0 62 27 62
41 0 6 9 22 20 37 16 19 18 27 8 33 -26 16 2 20 66 8 37 -6 76 -9 87 -6 14 4
24 -3 36 -26 16 -31 40 -56 55 -57 4 0 10 11 14 25 3 14 11 25 16 25 6 0 8 12
5 26 -4 22 0 28 29 40 44 18 55 18 47 -3 -4 -11 -3 -14 5 -9 7 4 12 2 12 -4 0
-7 8 -9 20 -5 23 7 27 -7 6 -25 -8 -6 -25 -32 -36 -56 -12 -24 -25 -44 -29
-44 -4 0 -13 -12 -20 -26 -10 -23 -8 -31 19 -67 16 -22 30 -48 30 -56 0 -9 16
-41 35 -71 19 -30 35 -62 35 -73 0 -27 50 -70 65 -57 21 18 102 -7 109 -33 9
-36 8 -37 -40 -15 -54 24 -66 15 -58 -42 2 -19 6 -93 8 -165 4 -132 11 -170
40 -194 9 -7 13 -17 11 -22 -7 -10 28 -29 54 -29 12 0 21 -4 21 -10 0 -5 -4
-10 -9 -10 -5 0 -7 -9 -4 -20 3 -11 0 -20 -6 -20 -6 0 -11 8 -11 18 0 10 -11
25 -24 32 -21 11 -30 10 -59 -3 -19 -9 -40 -23 -47 -32 -10 -12 -8 -16 14 -24
14 -6 31 -19 38 -31 15 -23 30 -25 57 -8 25 15 54 -6 46 -33 -3 -9 -1 -20 6
-24 7 -5 2 -13 -15 -24 -14 -10 -23 -21 -19 -26 5 -4 -2 -6 -14 -3 -15 4 -28
-2 -45 -21 -22 -25 -22 -25 -1 -7 19 15 25 16 38 6 18 -15 20 -30 2 -30 -7 0
-14 -11 -15 -25 -2 -25 -1 -25 21 -9 13 10 24 27 25 38 2 28 35 58 55 50 16
-6 25 -36 10 -32 -5 1 -18 -4 -30 -12 -15 -10 -19 -18 -12 -26 7 -8 5 -11 -8
-10 -10 0 -18 -5 -18 -13 0 -8 -30 -30 -66 -49 -36 -19 -74 -48 -85 -64 -10
-15 -23 -28 -29 -28 -12 0 -95 -90 -95 -104 0 -6 -18 -46 -40 -89 -22 -43 -40
-88 -39 -100 0 -21 1 -21 12 3 6 14 17 29 25 33 7 5 27 25 45 45 65 74 185
192 194 192 6 0 14 -15 20 -32 8 -29 6 -36 -16 -59 -76 -78 -101 -109 -101
-123 0 -21 16 -20 29 2 7 11 13 13 18 7 5 -6 21 -12 36 -13 15 -1 37 -10 47
-20 17 -16 18 -23 10 -48 -8 -23 -25 -37 -73 -59 -34 -16 -64 -29 -67 -29 -3
-1 -25 -19 -48 -42 -40 -38 -117 -172 -106 -183 3 -3 9 1 14 9 21 35 98 119
138 149 43 32 117 70 138 71 18 0 9 -38 -16 -65 -13 -14 -18 -25 -12 -25 14 0
16 -63 3 -88 -13 -23 -23 -52 -28 -77 -7 -40 -47 -108 -65 -113 -22 -5 -24
-22 -3 -22 19 0 19 -9 0 -30 -9 -10 -24 -41 -35 -69 l-18 -51 37 0 38 0 22 73
c12 39 33 99 46 132 14 33 34 95 44 137 11 43 29 107 41 144 11 36 17 70 14
75 -3 5 0 9 6 9 11 0 20 20 41 88 7 23 15 42 19 42 4 0 11 19 15 43 9 46 8 44
20 70 6 14 10 16 16 6 4 -8 3 -16 -3 -20 -6 -4 -3 -9 9 -13 13 -4 24 -22 32
-49 7 -23 19 -57 27 -74 8 -18 17 -64 19 -103 2 -38 7 -75 11 -81 7 -12 -25
-79 -38 -79 -5 0 -8 13 -8 29 0 16 -5 31 -11 33 -5 2 -13 22 -16 46 -7 55 -40
84 -47 40 -1 -7 -5 -19 -9 -25 -5 -8 -4 -13 2 -13 6 0 11 -4 11 -10 0 -14 -33
-13 -48 2 -6 6 -15 8 -19 4 -4 -4 -1 -12 8 -16 12 -7 16 -27 18 -77 1 -37 3
-80 5 -94 2 -14 -1 -35 -5 -48 -7 -19 -12 -20 -30 -11 -19 11 -20 10 -14 -11
6 -19 4 -21 -17 -17 -20 4 -27 -2 -41 -31 -31 -66 -87 -193 -87 -197 0 -2 157
-4 348 -4 l349 0 11 25 c7 14 12 39 12 55 0 16 5 41 12 55 8 19 8 31 0 50 -7
15 -8 25 -2 25 6 0 10 -8 10 -17 0 -13 3 -14 12 -5 8 8 13 40 13 81 0 78 -21
128 -66 153 -31 18 -31 43 1 51 13 3 21 -1 26 -15 3 -10 11 -17 17 -15 13 4
20 54 8 61 -9 6 2 74 21 129 11 32 17 38 36 34 34 -7 36 10 3 24 -16 7 -28 16
-25 20 2 4 -3 12 -11 19 -13 11 -12 15 9 35 29 27 87 57 94 50 3 -3 -3 -18
-14 -33 -19 -26 -22 -62 -4 -62 8 0 32 53 35 80 1 8 5 26 10 39 5 16 4 21 -4
17 -18 -11 -12 7 12 36 24 29 77 55 77 37 0 -5 -7 -12 -15 -15 -12 -5 -13 -10
-4 -20 9 -11 7 -14 -10 -14 -11 0 -21 -4 -21 -10 0 -16 15 -12 44 11 16 12 25
27 22 36 -3 7 1 16 9 19 8 4 15 14 15 23 0 10 11 27 25 39 30 26 31 26 39 7 4
-11 -3 -19 -19 -25 -14 -5 -25 -16 -25 -25 0 -8 -4 -15 -10 -15 -5 0 -10 -7
-10 -15 0 -13 4 -14 21 -5 15 8 24 8 34 0 10 -8 15 -8 21 1 4 7 -1 18 -11 25
-14 11 -16 16 -6 28 24 29 81 -11 81 -56 l0 -30 31 26 c31 26 69 35 69 16 0
-5 9 -10 20 -10 11 0 20 -6 21 -12 1 -7 4 -2 9 12 4 14 5 36 2 50 -3 18 -2 22
7 15 6 -6 12 -23 13 -38 1 -15 6 -27 10 -27 4 0 8 -10 8 -23 0 -30 10 -40 27
-26 10 9 13 7 13 -10 0 -16 6 -21 25 -21 22 0 24 3 16 19 -6 10 -7 21 -3 25 3
4 7 35 7 68 0 41 4 63 13 66 9 3 12 -6 10 -31 -1 -19 3 -42 10 -50 6 -7 9 -17
5 -20 -3 -4 -1 -7 5 -7 6 0 16 -24 22 -54 11 -52 12 -54 53 -62 34 -7 43 -14
45 -34 2 -14 9 -31 15 -39 10 -12 8 -13 -12 -8 -13 3 -34 2 -47 -3 -13 -5 -24
-6 -24 -1 0 5 7 11 15 15 8 3 15 10 15 15 0 18 -31 21 -56 5 -26 -17 -31 -38
-12 -50 6 -4 8 -3 4 4 -3 6 -2 13 4 17 5 3 10 -1 10 -9 0 -9 5 -16 12 -16 6 0
21 -8 32 -19 12 -10 31 -22 44 -26 17 -5 22 -2 22 12 0 12 8 19 20 20 11 1 20
-1 20 -5 0 -4 16 -24 36 -45 24 -24 34 -43 30 -53 -5 -13 -1 -16 23 -12 17 2
30 2 29 -1 -2 -20 5 -21 27 -7 14 9 25 12 25 7 0 -5 -5 -13 -10 -16 -16 -10
40 -71 60 -67 27 4 32 -39 12 -104 -16 -50 -22 -59 -40 -57 -17 2 -22 -2 -22
-22 0 -16 6 -25 15 -25 8 0 15 6 15 14 0 15 86 31 114 20 16 -6 23 -44 9 -44
-11 0 -73 -54 -73 -63 0 -5 -16 -24 -35 -44 -20 -21 -35 -46 -35 -60 0 -13 -6
-26 -14 -29 -7 -3 -13 -18 -12 -34 1 -28 4 -30 39 -30 30 0 37 4 37 20 0 25
16 26 29 2 9 -15 10 -15 11 5 0 12 4 24 9 27 16 10 4 60 -18 74 -20 14 -31 39
-11 27 5 -3 23 2 40 12 27 16 31 16 46 2 8 -9 17 -31 19 -49 5 -37 15 -53 15
-24 0 25 18 44 43 44 13 0 17 -5 13 -15 -3 -9 0 -15 9 -15 8 0 15 8 15 18 1
15 2 16 13 1 7 -9 22 -19 35 -23 12 -4 22 -14 22 -21 0 -9 6 -12 16 -8 13 5
15 2 9 -18 -7 -21 -6 -22 8 -10 14 11 18 11 24 -5 13 -36 29 -45 47 -25 19 21
21 32 4 26 -20 -7 -39 10 -32 29 4 11 13 15 26 10 19 -6 45 -12 60 -13 4 -1 3
-14 -2 -31 -10 -35 4 -41 20 -9 7 11 14 18 17 16 2 -3 0 -15 -7 -26 -10 -20
-8 -21 33 -21 23 0 48 5 55 12 9 9 15 9 24 0 9 -9 80 -12 259 -12 228 0 250 2
294 21 64 28 128 29 158 1 27 -25 113 -31 136 -10 11 10 14 10 18 1 4 -10 53
-13 203 -13 l198 0 7 37 c4 21 3 39 -2 40 -9 3 -8 111 1 120 3 4 6 14 6 23 0
13 10 16 50 16 50 -1 50 -1 50 -35 0 -28 2 -32 15 -21 8 6 23 9 35 5 15 -5 20
-2 20 12 1 17 1 17 14 1 17 -23 37 -23 29 -1 -5 13 -2 15 15 11 12 -4 22 -2
22 3 0 23 29 6 35 -21 7 -30 19 -38 30 -20 9 15 25 12 25 -5 0 -8 5 -15 10
-15 6 0 10 -7 10 -15 0 -11 8 -13 30 -9 29 6 30 6 28 -32 -1 -37 -1 -37 -5 -6
-2 17 -9 32 -14 32 -5 0 -7 -11 -3 -25 4 -15 2 -25 -5 -25 -6 0 -11 9 -11 20
0 11 -4 20 -10 20 -5 0 -10 -6 -10 -14 0 -17 -27 -40 -32 -28 -1 5 -14 13 -27
17 -19 6 -23 4 -18 -9 3 -8 2 -18 -4 -21 -5 -4 -7 -11 -4 -16 4 -5 1 -9 -4 -9
-6 0 -11 -7 -11 -15 0 -9 9 -15 25 -15 15 0 25 6 25 14 0 7 7 20 16 27 15 12
16 11 9 -10 -7 -23 -5 -24 24 -18 20 4 30 3 26 -3 -4 -7 1376 -10 4009 -10
l4016 0 0 4265 0 4265 -6400 0 -6400 0 0 -2165z m2100 -2909 c0 -2 -8 -10 -17
-17 -16 -13 -17 -12 -4 4 13 16 21 21 21 13z m300 -84 c0 -5 -11 -15 -25 -22
-20 -11 -27 -11 -40 0 -25 21 -17 30 25 30 22 0 40 -4 40 -8z m1016 -69 c-10
-10 -19 5 -10 18 6 11 8 11 12 0 2 -7 1 -15 -2 -18z m-1771 -23 c-3 -5 -12
-10 -20 -10 -8 0 -17 5 -20 10 -4 6 5 10 20 10 15 0 24 -4 20 -10z m167 -14
c11 -8 15 -20 11 -34 -4 -18 -8 -20 -19 -11 -8 6 -11 15 -8 20 3 5 -2 12 -10
15 -9 3 -13 10 -10 15 7 12 16 11 36 -5z m77 -43 c0 -26 -15 -74 -19 -63 -6
15 -9 67 -5 78 8 23 25 12 24 -15z m1848 -29 c-3 -3 -12 -4 -19 -1 -8 3 -5 6
6 6 11 1 17 -2 13 -5z m-2208 -43 c12 -21 5 -31 -20 -31 -17 0 -53 -39 -44
-48 2 -3 16 3 29 12 28 18 36 20 36 8 0 -4 -14 -16 -31 -26 -31 -18 -32 -18
-42 0 -19 33 -15 54 15 79 35 30 44 31 57 6z m835 -25 c-5 -13 -9 -14 -14 -5
-11 16 0 43 12 31 5 -5 6 -17 2 -26z m52 -14 c-9 -8 -26 10 -26 26 1 15 2 15
15 -2 8 -11 13 -21 11 -24z m-341 8 c-3 -5 -12 -7 -20 -3 -21 7 -19 13 6 13
11 0 18 -4 14 -10z m25 -14 c0 -3 -4 -8 -10 -11 -5 -3 -10 -1 -10 4 0 6 5 11
10 11 6 0 10 -2 10 -4z m13 -65 c17 -11 25 -21 18 -25 -12 -8 -61 21 -61 35 0
14 12 11 43 -10z m-75 -39 c-14 -36 -48 -45 -48 -12 0 16 48 55 57 46 2 -1 -3
-17 -9 -34z m-98 -17 c0 -16 -6 -25 -15 -25 -18 0 -18 5 -5 31 14 26 20 24 20
-6z m200 -11 c0 -14 -3 -14 -15 -4 -8 7 -15 14 -15 16 0 2 7 4 15 4 8 0 15 -7
15 -16z m-29 -32 c9 -7 22 -12 29 -10 14 3 19 -6 54 -84 l25 -58 -22 -15 c-39
-28 -65 -9 -34 25 10 12 9 12 -6 1 -22 -17 -33 -9 -13 9 14 10 14 16 1 46 -8
19 -12 41 -9 49 11 26 -14 16 -37 -16 -17 -24 -20 -39 -16 -72 3 -22 2 -35 -2
-28 -5 8 -17 11 -28 7 -27 -9 -52 13 -59 52 -6 32 -6 33 19 27 28 -7 47 15 47
55 l0 22 -17 -20 c-28 -33 -57 -32 -61 1 -3 25 -1 27 32 27 20 0 36 5 36 10 0
10 31 -4 61 -28z m69 8 c0 -5 -7 -7 -15 -4 -8 4 -12 10 -9 15 6 11 24 2 24
-11z m80 -21 c0 -14 -17 -10 -23 5 -4 10 -1 13 9 9 7 -3 14 -9 14 -14z m-1500
-9 c0 -5 -7 -10 -16 -10 -8 0 -12 5 -9 10 3 6 10 10 16 10 5 0 9 -4 9 -10z
m1051 -92 c-17 -55 -22 -43 -14 33 6 58 7 61 16 35 6 -19 6 -41 -2 -68z m473
30 c-3 -4 -12 -8 -21 -8 -10 0 -13 5 -8 18 4 9 8 24 10 32 2 8 4 17 5 20 1 3
6 -8 10 -24 5 -16 7 -33 4 -38z m-357 15 c-3 -10 -5 -4 -5 12 0 17 2 24 5 18
2 -7 2 -21 0 -30z m-1867 15 c0 -22 -17 -41 -29 -34 -8 5 -8 13 -1 27 12 21
30 26 30 7z m1412 -30 c-5 -20 -6 -20 -23 3 -17 22 -17 24 -1 30 21 8 31 -7
24 -33z m-1282 7 c0 -8 -7 -15 -15 -15 -16 0 -20 12 -8 23 11 12 23 8 23 -8z
m1937 -37 c-3 -7 -5 -2 -5 12 0 14 2 19 5 13 2 -7 2 -19 0 -25z m1950 16 c-3
-3 -12 -4 -19 -1 -8 3 -5 6 6 6 11 1 17 -2 13 -5z m-3917 -25 c0 -16 -54 -79
-67 -79 -7 0 -17 -9 -23 -20 -6 -11 -16 -17 -22 -14 -8 5 -7 10 3 18 16 13 24
76 9 76 -5 0 -10 7 -10 16 0 12 7 14 30 9 16 -3 37 -2 47 3 19 11 33 7 33 -9z
m2150 -5 c0 -8 -4 -12 -10 -9 -5 3 -10 10 -10 16 0 5 5 9 10 9 6 0 10 -7 10
-16z m578 -9 c-3 -3 -9 2 -12 12 -6 14 -5 15 5 6 7 -7 10 -15 7 -18z m-2692
-12 c-10 -10 -19 5 -10 18 6 11 8 11 12 0 2 -7 1 -15 -2 -18z m30 -35 c-2 -24
-7 -51 -11 -60 -8 -19 -25 -25 -25 -8 0 6 -7 10 -15 10 -12 0 -13 5 -4 28 9
24 47 72 56 72 3 0 2 -19 -1 -42z m-196 12 c0 -5 -4 -10 -10 -10 -5 0 -10 5
-10 10 0 6 5 10 10 10 6 0 10 -4 10 -10z m4030 0 c0 -5 -2 -10 -4 -10 -3 0 -8
5 -11 10 -3 6 -1 10 4 10 6 0 11 -4 11 -10z m-1654 -67 c-11 -29 -17 -6 -9 33
7 36 8 37 11 11 2 -16 1 -36 -2 -44z m314 37 c12 -23 3 -67 -10 -54 -13 14
-22 74 -10 74 5 0 14 -9 20 -20z m-490 -92 c0 -3 -11 -1 -23 5 -18 8 -21 14
-13 23 8 8 14 7 23 -5 7 -9 13 -19 13 -23z m-1570 12 c0 -5 -2 -10 -4 -10 -3
0 -8 5 -11 10 -3 6 -1 10 4 10 6 0 11 -4 11 -10z m1627 -22 c-3 -8 -6 -5 -6 6
-1 11 2 17 5 13 3 -3 4 -12 1 -19z m-147 -23 c-7 -9 -15 -13 -18 -10 -3 2 1
11 8 20 7 9 15 13 18 10 3 -2 -1 -11 -8 -20z m-662 -16 c-7 -4 -5 -10 5 -15
19 -11 67 -80 67 -98 0 -16 -35 -58 -43 -50 -3 3 -8 1 -12 -5 -4 -7 3 -11 16
-11 l23 0 -22 -20 c-27 -26 -32 -25 -31 3 0 12 -6 40 -15 62 -8 22 -15 68 -16
103 0 59 1 62 20 50 12 -8 15 -15 8 -19z m-1423 3 c-3 -3 -11 0 -18 7 -9 10
-8 11 6 5 10 -3 15 -9 12 -12z m105 0 c0 -11 -8 -18 -20 -19 -12 -1 -20 4 -20
13 0 8 5 12 10 9 6 -3 10 -1 10 4 0 6 5 11 10 11 6 0 10 -8 10 -18z m350 14
c0 -3 -4 -8 -10 -11 -5 -3 -10 -1 -10 4 0 6 5 11 10 11 6 0 10 -2 10 -4z
m1780 -11 c-7 -8 -17 -15 -22 -15 -6 0 -5 7 2 15 7 8 17 15 22 15 6 0 5 -7 -2
-15z m1900 -15 c0 -5 -5 -10 -11 -10 -5 0 -7 5 -4 10 3 6 8 10 11 10 2 0 4 -4
4 -10z m-1882 -35 c3 -3 3 -7 0 -10 -7 -7 -68 15 -68 25 0 8 58 -4 68 -15z
m-1418 -35 c-11 -20 -30 -28 -30 -12 0 11 22 32 32 32 5 0 4 -9 -2 -20z m-443
-25 c-4 -8 -11 -15 -17 -15 -6 0 -6 7 2 20 14 22 24 19 15 -5z m1583 -66 c0
-4 -4 -11 -10 -14 -5 -3 -10 0 -10 9 0 8 -3 23 -6 33 -5 16 -4 16 10 -1 9 -11
16 -23 16 -27z m-1960 1 c0 -5 -4 -10 -10 -10 -5 0 -10 5 -10 10 0 6 5 10 10
10 6 0 10 -4 10 -10z m57 -35 c-7 -20 -42 -10 -45 12 -3 20 -1 21 22 10 14 -7
24 -16 23 -22z m238 25 c3 -5 -1 -10 -10 -10 -9 0 -13 5 -10 10 3 6 8 10 10
10 2 0 7 -4 10 -10z m1590 0 c3 -5 -6 -21 -22 -36 -26 -24 -28 -24 -40 -8 -25
34 -16 54 21 54 19 0 38 -4 41 -10z m-1325 -29 c0 -6 -4 -13 -10 -16 -5 -3
-10 1 -10 9 0 9 5 16 10 16 6 0 10 -4 10 -9z m-40 -31 c0 -5 -5 -10 -11 -10
-5 0 -7 5 -4 10 3 6 8 10 11 10 2 0 4 -4 4 -10z m3809 -44 c-2 -2 -15 -9 -29
-15 -24 -11 -24 -11 -6 3 16 13 49 24 35 12z m-3839 -86 c0 -5 -5 -10 -11 -10
-5 0 -7 5 -4 10 3 6 8 10 11 10 2 0 4 -4 4 -10z m1301 -14 c-10 -11 -9 -21 3
-43 17 -35 10 -51 -23 -48 -18 1 -27 9 -33 31 -6 24 -3 32 20 51 30 25 51 30
33 9z m29 -131 c0 -14 -4 -25 -10 -25 -5 0 -10 11 -10 25 0 14 5 25 10 25 6 0
10 -11 10 -25z m-76 -21 c9 -22 -3 -32 -14 -14 -12 19 -12 30 -1 30 5 0 12 -7
15 -16z m-124 -30 c20 -20 23 -28 14 -51 -13 -37 -24 -35 -38 7 -8 24 -18 36
-33 38 -23 3 -33 22 -12 22 5 0 7 5 3 11 -12 20 39 -1 66 -27z m2977 30 c-3
-3 -12 -4 -19 -1 -8 3 -5 6 6 6 11 1 17 -2 13 -5z m43 -8 c0 -3 -4 -8 -10 -11
-5 -3 -10 -1 -10 4 0 6 5 11 10 11 6 0 10 -2 10 -4z m-1837 -67 c-7 -25 -23
-35 -23 -15 0 9 -7 16 -16 16 -8 0 -13 4 -10 9 3 5 16 9 30 9 18 0 22 -5 19
-19z m-33 -59 c0 -5 -2 -10 -4 -10 -3 0 -8 5 -11 10 -3 6 -1 10 4 10 6 0 11
-4 11 -10z m90 -40 c0 -5 -4 -10 -10 -10 -5 0 -10 5 -10 10 0 6 5 10 10 10 6
0 10 -4 10 -10z m1965 -104 c19 -40 35 -76 35 -80 0 -3 16 -40 35 -83 20 -42
34 -82 31 -90 -3 -7 0 -13 6 -13 7 0 5 -7 -5 -17 -13 -16 -13 -20 -1 -31 21
-19 18 -61 -3 -57 -12 1 -17 10 -16 24 2 11 -2 21 -8 21 -6 0 -8 8 -4 19 4 12
0 21 -12 26 -17 6 -17 7 -1 19 14 10 15 19 5 59 -6 26 -14 47 -19 47 -5 0 -7
4 -3 9 3 5 1 12 -5 16 -5 3 -10 15 -10 26 0 10 -4 19 -8 19 -20 0 -19 -14 0
-48 25 -45 39 -92 32 -104 -3 -5 -11 -2 -17 6 -17 23 -73 7 -70 -20 1 -10 0
-13 -3 -6 -3 6 -13 12 -22 12 -11 0 -13 3 -6 8 6 4 13 15 17 25 4 9 18 22 32
27 32 12 34 35 3 26 -13 -4 -32 -10 -43 -12 l-20 -5 20 16 c11 9 26 20 33 24
10 5 10 14 3 34 -11 27 -34 36 -46 17 -3 -5 -13 -10 -22 -10 -8 0 -29 -6 -46
-14 -86 -36 -119 -47 -87 -26 8 5 15 15 15 21 0 7 7 15 15 19 8 4 26 13 39 19
19 10 25 10 33 -1 8 -10 9 -9 5 4 -4 11 3 20 24 28 23 10 29 19 29 42 0 16 -6
31 -15 34 -8 4 -15 14 -15 23 0 14 2 14 10 1 5 -8 10 -11 10 -6 0 5 9 1 20 -9
11 -10 20 -13 20 -7 0 6 -5 12 -12 14 -10 4 -4 28 7 28 2 0 20 -33 40 -74z
m-1951 56 c2 -4 1 -14 -4 -22 -7 -11 -12 -12 -21 -3 -6 6 -8 16 -5 22 8 13 23
14 30 3z m-1369 -12 c4 -6 -6 -10 -22 -10 -22 0 -25 2 -13 10 19 12 27 12 35
0z m1789 -22 c-10 -16 -22 -7 -17 13 4 15 8 17 14 8 4 -7 5 -17 3 -21z m-684
-8 c0 -5 -4 -10 -10 -10 -5 0 -10 5 -10 10 0 6 5 10 10 10 6 0 10 -4 10 -10z
m555 -20 c3 -5 -1 -10 -10 -10 -9 0 -13 5 -10 10 3 6 8 10 10 10 2 0 7 -4 10
-10z m-766 -14 c9 -11 8 -14 -6 -12 -12 0 -19 -7 -21 -22 -4 -25 -22 -20 -22
7 0 17 18 41 31 41 4 0 12 -6 18 -14z m936 -6 c-3 -5 -13 -10 -21 -10 -8 0
-12 5 -9 10 3 6 13 10 21 10 8 0 12 -4 9 -10z m1199 -76 c26 -47 45 -88 41
-92 -3 -3 -10 0 -15 8 -8 13 -10 13 -10 1 0 -27 -20 4 -22 34 -2 18 -16 44
-35 64 -32 33 -40 51 -26 64 12 13 18 6 67 -79z m-1280 67 c3 -5 -3 -11 -14
-14 -20 -5 -26 3 -13 16 9 10 21 9 27 -2z m314 -17 c12 -8 22 -12 22 -9 0 3 5
3 11 0 17 -11 -21 -32 -50 -27 -32 6 -55 33 -38 44 18 11 30 10 55 -8z m-710
-29 c-3 -3 -9 2 -12 12 -6 14 -5 15 5 6 7 -7 10 -15 7 -18z m502 -16 c0 -6 -4
-7 -10 -4 -5 3 -10 11 -10 16 0 6 5 7 10 4 6 -3 10 -11 10 -16z m-945 1 c-3
-5 -12 -10 -18 -10 -7 0 -6 4 3 10 19 12 23 12 15 0z m235 1 c0 -5 -7 -11 -15
-15 -15 -5 -20 5 -8 17 9 10 23 9 23 -2z m385 -11 c-21 -24 -35 -26 -35 -6 0
8 10 17 23 19 12 2 24 5 26 6 2 0 -4 -8 -14 -19z m465 10 c0 -5 -5 -10 -11
-10 -5 0 -7 5 -4 10 3 6 8 10 11 10 2 0 4 -4 4 -10z m-85 -20 c3 -5 -1 -10 -9
-10 -9 0 -16 5 -16 10 0 6 4 10 9 10 6 0 13 -4 16 -10z m1355 -10 c-46 -35
-99 -58 -119 -53 -12 3 -21 9 -21 14 0 5 3 8 8 7 9 -3 104 33 117 44 5 4 16 8
25 8 10 0 7 -6 -10 -20z m-1450 -20 c0 -5 -5 -10 -11 -10 -5 0 -7 5 -4 10 3 6
8 10 11 10 2 0 4 -4 4 -10z m-2604 -37 c23 -31 24 -34 5 -18 -22 19 -46 55
-38 55 3 0 17 -17 33 -37z m823 -9 l22 -26 -22 4 c-15 2 -23 11 -24 26 -1 12
-1 22 0 22 1 0 11 -12 24 -26z m3081 16 c0 -5 -4 -10 -10 -10 -5 0 -10 5 -10
10 0 6 5 10 10 10 6 0 10 -4 10 -10z m130 -34 c0 -3 -13 -11 -30 -20 -24 -12
-30 -12 -30 -1 0 7 6 16 13 18 15 7 47 8 47 3z m-3960 -59 c21 -24 57 -56 79
-71 23 -16 41 -37 41 -47 0 -10 4 -20 9 -23 5 -3 11 -15 14 -26 4 -16 0 -20
-19 -20 -18 0 -22 4 -17 17 5 12 2 15 -10 10 -18 -7 -24 8 -7 18 13 8 13 35 1
35 -5 0 -11 -6 -14 -12 -2 -7 -3 -5 -2 4 2 10 -16 35 -39 56 -45 41 -93 102
-80 102 3 0 24 -19 44 -43z m1545 33 c-3 -5 -11 -10 -16 -10 -6 0 -7 5 -4 10
3 6 11 10 16 10 6 0 7 -4 4 -10z m405 6 c0 -2 -9 -6 -20 -9 -11 -3 -20 -1 -20
4 0 5 9 9 20 9 11 0 20 -2 20 -4z m-1170 -10 c0 -3 -4 -8 -10 -11 -5 -3 -10
-1 -10 4 0 6 5 11 10 11 6 0 10 -2 10 -4z m75 -6 c3 -5 1 -10 -4 -10 -6 0 -11
5 -11 10 0 6 2 10 4 10 3 0 8 -4 11 -10z m1040 0 c-3 -5 -16 -10 -28 -9 -21 0
-21 1 -2 9 28 12 37 12 30 0z m2055 -22 c0 -13 -8 -18 -31 -18 -25 0 -30 3
-25 16 4 12 2 15 -9 10 -8 -3 -15 -1 -15 4 0 5 18 8 40 7 31 -1 40 -6 40 -19z
m-2525 2 c3 -5 -1 -10 -9 -10 -9 0 -16 5 -16 10 0 6 4 10 9 10 6 0 13 -4 16
-10z m2439 -6 c10 -25 -1 -29 -14 -5 -6 12 -7 21 -1 21 5 0 12 -7 15 -16z
m196 -19 c0 -6 -72 -36 -77 -32 -4 5 57 36 70 37 4 0 7 -2 7 -5z m-3250 -14
c0 -6 -4 -13 -10 -16 -5 -3 -10 1 -10 9 0 9 5 16 10 16 6 0 10 -4 10 -9z m600
-1 c0 -5 -5 -10 -11 -10 -5 0 -7 5 -4 10 3 6 8 10 11 10 2 0 4 -4 4 -10z
m1140 -9 c0 -5 -7 -11 -15 -15 -8 -3 -14 -11 -13 -18 2 -6 -6 -13 -17 -15 -11
-1 -14 0 -7 3 6 3 12 11 12 18 0 14 20 36 32 36 4 0 8 -4 8 -9z m190 -15 c0
-3 -4 -8 -10 -11 -5 -3 -10 -1 -10 4 0 6 5 11 10 11 6 0 10 -2 10 -4z m1229
-1 c-13 -12 -79 -34 -79 -26 0 5 12 14 28 19 29 11 58 15 51 7z m-3739 -13 c0
-5 -7 -9 -15 -9 -8 0 -12 4 -9 9 3 4 9 8 15 8 5 0 9 -4 9 -8z m2217 -24 c-3
-8 -6 -5 -6 6 -1 11 2 17 5 13 3 -3 4 -12 1 -19z m28 12 c3 -5 1 -10 -4 -10
-6 0 -11 5 -11 10 0 6 2 10 4 10 3 0 8 -4 11 -10z m-1524 -22 c11 -21 11 -22
-4 -9 -10 7 -17 17 -17 22 0 15 9 10 21 -13z m651 7 c-2 -5 -9 -9 -17 -7 -14
3 -28 -25 -19 -39 9 -15 -23 -10 -35 5 -10 11 -8 16 8 21 12 3 21 13 21 21 0
10 8 14 23 12 12 -2 21 -7 19 -13z m1115 -17 c-3 -8 -6 -5 -6 6 -1 11 2 17 5
13 3 -3 4 -12 1 -19z m-403 -3 c-4 -8 -8 -15 -10 -15 -2 0 -4 7 -4 15 0 8 4
15 10 15 5 0 7 -7 4 -15z m1772 8 c-3 -4 -17 -8 -29 -10 -17 -2 -19 -1 -7 7
17 11 47 14 36 3z m74 -13 c0 -5 -4 -10 -10 -10 -5 0 -10 5 -10 10 0 6 5 10
10 10 6 0 10 -4 10 -10z m-3630 -7 c0 -5 -16 -8 -35 -8 -19 0 -35 3 -35 8 0 4
16 7 35 7 19 0 35 -3 35 -7z m2310 -14 c0 -5 -4 -9 -10 -9 -5 0 -10 7 -10 16
0 8 5 12 10 9 6 -3 10 -10 10 -16z m-410 -9 c-55 -34 -108 -95 -60 -70 16 9
18 8 14 -5 -3 -8 -11 -12 -17 -8 -7 4 -8 -1 -4 -13 7 -18 6 -18 -7 -1 -9 11
-17 14 -21 8 -3 -6 6 -23 20 -38 20 -22 22 -29 10 -31 -19 -4 -20 -22 -1 -22
16 0 28 -24 21 -43 -3 -7 4 -30 15 -52 11 -21 20 -45 20 -52 0 -7 4 -13 9 -13
5 0 7 -9 4 -19 -3 -10 1 -29 7 -41 10 -19 10 -24 -3 -31 -9 -6 -13 -18 -9 -35
4 -23 2 -25 -16 -20 -17 6 -21 3 -19 -16 1 -13 8 -28 16 -34 10 -8 11 -13 3
-18 -19 -12 -48 11 -67 53 -10 23 -22 41 -27 41 -4 0 6 -28 23 -61 20 -41 27
-64 20 -69 -14 -8 -51 -79 -51 -97 0 -7 -4 -13 -9 -13 -16 0 -28 25 -35 75 -8
60 -17 71 -39 47 -40 -44 -71 -255 -52 -357 5 -26 4 -28 -6 -11 -32 51 -45
186 -29 281 7 39 21 106 32 150 10 44 23 100 28 124 11 47 27 74 40 66 5 -3
12 0 16 6 4 8 3 9 -4 5 -18 -11 -14 10 5 25 9 8 23 29 30 48 8 19 26 49 39 67
21 26 22 33 9 38 -8 3 -15 0 -15 -6 0 -7 -4 -7 -14 1 -12 10 -24 0 -65 -51
-28 -34 -51 -67 -50 -73 0 -5 3 -4 6 3 2 6 11 12 18 12 10 0 7 -16 -11 -62
-13 -35 -29 -71 -34 -80 -6 -10 -10 -27 -10 -38 0 -11 -7 -20 -15 -20 -8 0
-12 -6 -9 -14 3 -8 -6 -56 -19 -108 -31 -115 -41 -226 -27 -298 19 -97 20
-119 5 -134 -17 -17 -20 -30 -5 -21 6 3 10 -5 10 -19 0 -14 4 -28 10 -31 6 -4
3 -16 -6 -31 l-17 -25 -15 22 c-10 15 -11 24 -3 32 15 15 14 27 -3 27 -8 0
-16 10 -19 23 -3 21 -4 21 -12 2 -5 -11 -15 -25 -23 -31 -12 -8 -12 -15 -3
-32 12 -23 6 -47 -8 -37 -17 10 -21 77 -5 92 8 9 12 18 9 21 -3 4 -10 0 -14
-7 -21 -33 -32 239 -13 314 18 72 22 105 12 105 -6 0 -10 -9 -10 -20 0 -11 -5
-20 -11 -20 -5 0 -7 -4 -4 -10 3 -5 -1 -20 -9 -32 -9 -12 -16 -31 -16 -42 0
-11 -8 -28 -17 -38 -14 -15 -17 -36 -16 -101 2 -135 13 -217 29 -217 8 0 15
-6 15 -12 1 -7 3 -23 4 -36 1 -12 -2 -25 -7 -28 -15 -10 -49 38 -46 65 2 17
-2 27 -13 29 -14 3 -15 -4 -8 -49 5 -29 6 -55 4 -57 -2 -3 -17 10 -32 28 -32
38 -81 161 -83 205 0 37 -14 60 -29 51 -12 -8 -14 4 -5 28 3 9 12 16 19 16 8
0 15 22 19 57 6 47 4 60 -10 70 -13 10 -44 57 -44 68 0 12 61 -23 66 -37 6
-19 24 -25 24 -8 0 5 38 51 85 102 47 50 90 103 97 117 6 14 27 39 46 56 24
20 9 -5 -48 -78 -45 -59 -95 -118 -112 -130 -27 -20 -58 -64 -58 -83 0 -4 25
18 55 49 31 31 60 57 65 57 6 0 10 7 10 15 0 8 5 15 11 15 5 0 7 -4 4 -10 -3
-5 2 -10 12 -10 13 0 28 21 51 69 17 39 32 73 32 77 0 4 11 22 25 40 14 18 24
37 23 41 -4 10 115 183 155 226 15 16 27 37 27 45 0 8 6 12 15 8 8 -3 15 -1
15 4 0 13 111 102 119 95 3 -3 -1 -10 -9 -15z m-1130 -27 c-1 -31 -3 -35 -11
-20 -6 9 -7 26 -4 37 10 30 15 24 15 -17z m630 30 c0 -10 -32 -43 -42 -43 -5
0 -1 11 9 25 17 23 33 32 33 18z m-1969 -13 c5 0 9 -4 9 -10 0 -5 -13 -10 -30
-10 -22 0 -28 4 -23 16 3 8 12 13 20 10 8 -3 19 -6 24 -6z m4213 -37 c3 -25 4
-49 1 -51 -3 -3 -5 4 -5 16 0 23 -33 32 -45 12 -3 -5 -12 -10 -18 -10 -7 0 0
8 16 18 16 10 27 25 27 39 0 41 17 24 24 -24z m-3621 22 c1 -6 -16 -11 -38
-12 l-40 -2 30 14 c32 15 45 15 48 0z m1077 -12 c25 -22 25 -33 0 -33 -11 0
-20 7 -20 15 0 8 -8 15 -17 15 -15 0 -16 2 -3 10 19 12 16 13 40 -7z m-1603
-13 c25 0 31 -4 27 -15 -4 -8 -1 -15 5 -15 6 0 11 -7 11 -15 0 -22 -26 -18
-43 5 -14 20 -15 20 -20 -10 -5 -21 -12 -30 -27 -30 -15 0 -20 7 -20 29 0 17
-4 33 -10 36 -5 3 -10 10 -10 15 0 12 33 18 45 8 5 -4 24 -8 42 -8z m186 -4
c16 -4 31 -16 36 -29 12 -32 13 -119 2 -112 -12 7 32 -106 59 -152 23 -39 25
-47 9 -37 -9 5 -68 124 -109 219 -55 128 -60 145 -37 128 6 -6 25 -13 40 -17z
m3727 -17 c0 -6 -4 -7 -10 -4 -5 3 -10 11 -10 16 0 6 5 7 10 4 6 -3 10 -11 10
-16z m40 12 c0 -5 -7 -11 -15 -15 -15 -5 -20 5 -8 17 9 10 23 9 23 -2z m-2098
-26 c4 -20 3 -23 -8 -14 -16 13 -19 39 -5 39 5 0 11 -11 13 -25z m2158 15 c0
-5 -5 -10 -11 -10 -5 0 -7 5 -4 10 3 6 8 10 11 10 2 0 4 -4 4 -10z m-3766 -26
c3 -8 2 -12 -4 -9 -6 3 -10 10 -10 16 0 14 7 11 14 -7z m3862 3 c-10 -7 -34
-22 -52 -34 -19 -12 -34 -21 -34 -18 0 16 22 55 30 55 6 0 8 -4 5 -10 -9 -15
7 -12 29 5 11 8 25 15 30 14 6 0 3 -6 -8 -12z m-3837 -77 c0 -9 -4 -8 -9 5 -5
11 -9 27 -9 35 0 9 4 8 9 -5 5 -11 9 -27 9 -35z m31 23 c0 -22 -2 -25 -10 -13
-13 20 -13 40 0 40 6 0 10 -12 10 -27z m211 -55 c9 -17 3 -48 -10 -48 -15 0
-55 65 -56 92 l-2 29 29 -28 c17 -15 34 -36 39 -45z m-391 26 c0 -2 -13 2 -30
11 -16 9 -30 18 -30 21 0 2 14 -2 30 -11 17 -9 30 -18 30 -21z m2296 -11 c-11
-11 -19 6 -11 24 8 17 8 17 12 0 3 -10 2 -21 -1 -24z m1714 27 c0 -5 -7 -10
-15 -10 -8 0 -15 -7 -15 -15 0 -8 -4 -15 -9 -15 -14 0 -7 30 10 41 19 12 29
11 29 -1z m-1697 -45 c28 -7 35 -23 16 -42 -8 -8 -8 -17 0 -31 6 -10 8 -22 5
-24 -2 -3 0 -17 5 -32 13 -34 -1 -34 -32 0 -14 15 -31 54 -41 94 -20 84 -20
90 2 63 9 -12 29 -25 45 -28z m1558 14 c-5 -13 -10 -18 -10 -10 -1 7 -7 11
-16 7 -8 -3 -15 -1 -15 5 0 9 41 30 48 24 1 -1 -2 -13 -7 -26z m-2606 11 c3
-5 1 -10 -4 -10 -6 0 -11 5 -11 10 0 6 2 10 4 10 3 0 8 -4 11 -10z m480 0 c3
-5 1 -10 -4 -10 -6 0 -11 5 -11 10 0 6 2 10 4 10 3 0 8 -4 11 -10z m2275 -4
c0 -3 -4 -8 -10 -11 -5 -3 -10 -1 -10 4 0 6 5 11 10 11 6 0 10 -2 10 -4z
m-2970 -16 c0 -5 -2 -10 -4 -10 -3 0 -8 5 -11 10 -3 6 -1 10 4 10 6 0 11 -4
11 -10z m2860 -20 c-24 -15 -37 -11 -16 5 11 8 22 12 25 9 3 -3 -1 -9 -9 -14z
m40 10 c0 -5 -2 -10 -4 -10 -3 0 -8 5 -11 10 -3 6 -1 10 4 10 6 0 11 -4 11
-10z m-3026 -6 c9 -3 16 -14 15 -23 0 -11 -2 -12 -6 -3 -4 10 -9 9 -24 -4 -10
-9 -16 -21 -13 -25 3 -5 1 -9 -3 -9 -16 0 -33 23 -33 44 0 16 3 17 12 8 16
-16 28 -15 28 3 0 17 2 18 24 9z m66 -24 c0 -5 -5 -10 -11 -10 -5 0 -7 5 -4
10 3 6 8 10 11 10 2 0 4 -4 4 -10z m97 4 c-3 -3 -12 -4 -19 -1 -8 3 -5 6 6 6
11 1 17 -2 13 -5z m233 -4 c0 -5 -5 -10 -11 -10 -5 0 -7 5 -4 10 3 6 8 10 11
10 2 0 4 -4 4 -10z m-160 -21 c0 -4 -7 -6 -15 -3 -8 4 -15 10 -15 15 0 4 7 6
15 3 8 -4 15 -10 15 -15z m-140 1 c0 -5 -4 -10 -10 -10 -5 0 -10 5 -10 10 0 6
5 10 10 10 6 0 10 -4 10 -10z m1423 -22 c-3 -18 -10 -39 -16 -45 -6 -9 -6 -13
2 -13 7 0 0 -17 -14 -37 -14 -21 -25 -52 -25 -70 0 -17 -5 -35 -10 -38 -6 -4
-8 -10 -5 -15 3 -5 0 -12 -5 -15 -6 -4 -16 -18 -21 -32 -5 -14 -12 -23 -15
-20 -6 6 31 138 52 185 9 18 22 55 30 82 16 56 37 68 27 18z m1557 27 c0 -10
-62 -36 -78 -32 -13 4 -12 5 4 6 12 0 27 8 34 16 11 14 40 21 40 10z m90 0 c0
-6 -68 -40 -100 -50 l-25 -7 25 19 c32 25 100 51 100 38z m-4104 -60 c3 -11
15 -27 27 -36 11 -9 17 -21 13 -28 -12 -18 -23 -13 -44 22 -11 19 -27 45 -36
60 l-18 26 26 -12 c14 -7 29 -21 32 -32z m1011 14 c2 -12 -1 -18 -7 -14 -5 3
-10 16 -10 27 0 26 13 16 17 -13z m3127 16 c-4 -8 -8 -15 -10 -15 -2 0 -4 7
-4 15 0 8 4 15 10 15 5 0 7 -7 4 -15z m-2936 -42 c-17 -21 -27 -5 -15 22 10
20 13 22 18 7 4 -9 2 -23 -3 -29z m-981 5 c-3 -8 -6 -5 -6 6 -1 11 2 17 5 13
3 -3 4 -12 1 -19z m736 2 c3 -11 1 -20 -4 -20 -5 0 -9 9 -9 20 0 11 2 20 4 20
2 0 6 -9 9 -20z m92 10 c3 -5 -1 -10 -10 -10 -9 0 -13 5 -10 10 3 6 8 10 10
10 2 0 7 -4 10 -10z m3025 0 c0 -5 -5 -10 -11 -10 -5 0 -7 5 -4 10 3 6 8 10
11 10 2 0 4 -4 4 -10z m80 -15 c0 -14 -4 -25 -10 -25 -11 0 -14 33 -3 43 11
11 13 8 13 -18z m-3230 -6 c0 -5 -4 -9 -10 -9 -5 0 -10 7 -10 16 0 8 5 12 10
9 6 -3 10 -10 10 -16z m410 -21 c0 -5 -4 -8 -10 -8 -5 0 -10 10 -10 23 0 18 2
19 10 7 5 -8 10 -18 10 -22z m-450 7 c0 -8 -7 -15 -16 -15 -14 0 -14 3 -4 15
7 8 14 15 16 15 2 0 4 -7 4 -15z m144 7 c3 -5 2 -18 -1 -30 -4 -16 -13 -22
-32 -21 -18 0 -21 3 -11 7 9 4 15 14 15 22 -2 28 17 41 29 22z m256 -12 c-8
-5 -17 -7 -19 -4 -3 3 1 9 9 14 8 5 17 7 19 4 3 -3 -1 -9 -9 -14z m2706 5
c-11 -8 -22 -12 -25 -9 -6 6 19 24 34 24 6 -1 1 -7 -9 -15z m43 -16 c-40 -31
-54 -23 -17 10 11 11 25 18 31 14 5 -3 -1 -14 -14 -24z m-3279 6 c0 -8 -4 -15
-10 -15 -5 0 -7 7 -4 15 4 8 8 15 10 15 2 0 4 -7 4 -15z m3180 5 c0 -5 -5 -10
-11 -10 -5 0 -7 5 -4 10 3 6 8 10 11 10 2 0 4 -4 4 -10z m185 1 c3 -5 1 -12
-5 -16 -5 -3 -10 1 -10 9 0 18 6 21 15 7z m-4162 -29 c10 -10 14 -22 10 -26
-5 -4 1 -6 12 -4 13 2 21 -4 23 -17 2 -11 10 -24 18 -28 16 -9 19 -53 3 -62
-7 -5 -5 -13 5 -24 12 -13 13 -20 4 -29 -18 -18 -28 -15 -28 8 0 13 -5 18 -15
14 -8 -4 -15 -2 -15 4 0 6 6 12 13 15 6 2 9 8 5 12 -10 10 -38 -13 -38 -31 0
-8 11 -19 25 -24 28 -10 31 -22 13 -38 -30 -24 -51 -18 -72 25 -12 23 -29 50
-39 60 -15 17 -15 22 -2 39 8 10 15 27 15 37 0 9 4 25 9 35 5 9 12 25 15 35 7
22 19 22 39 -1z m1284 12 c-3 -3 -12 -4 -19 -1 -8 3 -5 6 6 6 11 1 17 -2 13
-5z m-1161 -41 c-4 -4 -11 -1 -16 7 -16 25 -11 35 7 17 9 -9 13 -20 9 -24z
m3904 18 c0 -13 -7 -18 -25 -18 -21 0 -23 2 -14 18 5 11 16 19 24 19 8 0 15
-8 15 -19z m-3080 -1 c0 -5 -5 -10 -11 -10 -5 0 -7 5 -4 10 3 6 8 10 11 10 2
0 4 -4 4 -10z m3176 -6 c-4 -11 -2 -14 6 -11 56 23 54 23 33 0 -11 -11 -31
-24 -44 -28 -20 -6 -23 -4 -18 9 4 9 1 16 -5 16 -7 0 -6 5 2 15 17 20 34 19
26 -1z m-2269 -26 c-3 -8 -6 -5 -6 6 -1 11 2 17 5 13 3 -3 4 -12 1 -19z m2203
6 c-19 -22 -55 -41 -45 -22 16 28 28 38 42 38 13 0 13 -3 3 -16z m-2320 -11
c0 -10 -5 -25 -10 -33 -7 -11 -10 -7 -10 18 0 17 5 32 10 32 6 0 10 -8 10 -17z
m1081 -5 c-4 -12 -17 -25 -29 -29 -18 -7 -22 -5 -22 11 0 19 24 39 47 40 8 0
10 -7 4 -22z m1396 -14 c-3 -3 -12 -4 -19 -1 -8 3 -5 6 6 6 11 1 17 -2 13 -5z
m-3127 -14 c0 -13 -11 -13 -30 0 -12 8 -11 10 8 10 12 0 22 -4 22 -10z m480 0
c0 -5 -4 -10 -9 -10 -6 0 -13 5 -16 10 -3 6 1 10 9 10 9 0 16 -4 16 -10z
m2623 -11 c5 -3 2 -9 -7 -12 -12 -5 -16 0 -16 15 0 12 3 17 8 12 4 -5 11 -12
15 -15z m-203 -14 c-7 -8 -17 -15 -22 -15 -6 0 -5 7 2 15 7 8 17 15 22 15 6 0
5 -7 -2 -15z m-2256 -21 c10 -25 7 -84 -4 -84 -9 0 -14 29 -13 68 1 6 -8 12
-18 12 -10 0 -19 5 -19 10 0 16 47 11 54 -6z m2439 -1 c9 -3 17 0 17 6 0 6 5
11 12 11 20 0 -22 -38 -48 -43 -18 -3 -24 -1 -20 9 3 8 1 14 -4 14 -6 0 -10 5
-10 11 0 7 7 8 18 4 9 -4 25 -10 35 -12z m-4338 -3 c-3 -5 -10 -10 -16 -10 -5
0 -9 5 -9 10 0 6 7 10 16 10 8 0 12 -4 9 -10z m1695 -10 c8 -5 12 -12 9 -15
-8 -8 -39 5 -39 16 0 11 11 11 30 -1z m2570 -20 c0 -11 -4 -20 -8 -20 -4 0 -8
9 -8 20 0 11 4 20 8 20 4 0 8 -9 8 -20z m-2767 -14 c24 -18 21 -24 -8 -18 -14
2 -25 11 -25 18 0 17 10 17 33 0z m1377 -6 c0 -5 -2 -10 -4 -10 -3 0 -8 5 -11
10 -3 6 -1 10 4 10 6 0 11 -4 11 -10z m-1290 -19 c0 -11 -4 -23 -10 -26 -6 -4
-9 5 -8 19 3 30 18 35 18 7z m2760 9 c0 -5 -4 -10 -10 -10 -5 0 -10 5 -10 10
0 6 5 10 10 10 6 0 10 -4 10 -10z m-393 -22 c27 -25 28 -34 9 -54 -20 -19 -23
-18 -41 16 -30 57 -12 79 32 38z m-2442 2 c3 -5 -1 -10 -9 -10 -9 0 -16 5 -16
10 0 6 4 10 9 10 6 0 13 -4 16 -10z m335 -41 c0 -5 -7 -9 -15 -9 -15 0 -20 12
-9 23 8 8 24 -1 24 -14z m2547 -1 c-3 -8 -6 -5 -6 6 -1 11 2 17 5 13 3 -3 4
-12 1 -19z m-2873 -3 c3 -8 1 -15 -4 -15 -6 0 -10 7 -10 15 0 8 2 15 4 15 2 0
6 -7 10 -15z m2800 0 c-10 -8 -23 -14 -29 -14 -5 0 -1 6 9 14 11 8 24 15 30
15 5 0 1 -7 -10 -15z m-2739 -15 c-3 -5 -13 -10 -21 -10 -8 0 -14 5 -14 10 0
6 9 10 21 10 11 0 17 -4 14 -10z m2695 -11 c0 -5 -4 -8 -9 -4 -5 3 -17 -5 -25
-17 -18 -25 -21 -17 -6 13 11 20 40 26 40 8z m-1306 -14 c-6 -16 -24 -21 -24
-7 0 11 11 22 21 22 5 0 6 -7 3 -15z m-470 -44 c-10 -17 -22 -31 -27 -31 -4 0
-4 -8 2 -17 7 -13 4 -22 -12 -36 -42 -36 -26 23 25 96 26 37 35 27 12 -12z
m1476 -1 c0 -5 -4 -10 -10 -10 -5 0 -10 5 -10 10 0 6 5 10 10 10 6 0 10 -4 10
-10z m30 0 c0 -5 -4 -10 -10 -10 -5 0 -10 5 -10 10 0 6 5 10 10 10 6 0 10 -4
10 -10z m-732 -16 c38 -18 44 -28 48 -67 1 -21 -1 -26 -9 -18 -6 6 -19 11 -29
11 -10 0 -18 6 -18 14 0 7 -7 19 -15 26 -13 11 -22 50 -12 50 2 0 18 -7 35
-16z m1072 12 c0 -3 -4 -8 -10 -11 -5 -3 -10 -1 -10 4 0 6 5 11 10 11 6 0 10
-2 10 -4z m-2637 -18 c15 -7 27 -19 27 -27 0 -11 -4 -11 -18 2 -10 10 -26 17
-35 17 -9 0 -19 5 -22 10 -9 14 16 13 48 -2z m1245 -51 c7 -18 12 -40 12 -49
0 -8 8 -37 19 -64 60 -159 65 -195 36 -307 -10 -38 -17 -27 -22 33 -2 28 -8
62 -13 76 -6 14 -10 38 -10 54 0 34 -19 80 -39 96 -7 6 -13 24 -12 40 1 16 3
57 4 92 1 34 4 62 7 62 4 0 11 -15 18 -33z m-1148 13 c0 -5 -5 -10 -11 -10 -5
0 -7 5 -4 10 3 6 8 10 11 10 2 0 4 -4 4 -10z m1049 -38 c-6 -18 -15 -32 -20
-32 -5 0 -9 -6 -9 -14 0 -8 -7 -16 -15 -20 -17 -6 -21 19 -5 29 6 3 10 16 10
28 0 13 9 26 23 33 29 13 29 13 16 -24z m-1115 12 c9 -24 7 -28 -9 -14 -17 14
-20 30 -6 30 5 0 12 -7 15 -16z m2296 -21 c22 -10 40 -21 40 -24 0 -13 -34
-19 -41 -8 -4 7 -15 9 -24 5 -12 -4 -16 -2 -12 8 3 7 0 19 -6 25 -16 16 -4 14
43 -6z m-1015 -3 c3 -5 1 -10 -4 -10 -6 0 -11 5 -11 10 0 6 2 10 4 10 3 0 8
-4 11 -10z m95 0 c0 -5 -2 -10 -4 -10 -3 0 -8 5 -11 10 -3 6 -1 10 4 10 6 0
11 -4 11 -10z m977 4 c-3 -3 -12 -4 -19 -1 -8 3 -5 6 6 6 11 1 17 -2 13 -5z
m343 -8 c0 -2 -15 -9 -32 -15 -30 -10 -31 -9 -14 4 18 14 46 20 46 11z m-2010
-22 c0 -22 -20 -57 -43 -73 -19 -13 -19 -14 9 -27 26 -11 26 -12 7 -13 -27 -1
-38 -17 -17 -25 24 -9 54 -7 54 3 0 15 30 41 46 41 22 0 16 -32 -12 -64 -21
-23 -28 -26 -35 -15 -6 9 -9 10 -9 2 0 -13 -113 -72 -140 -74 -8 0 0 -5 19
-11 26 -7 31 -12 20 -19 -8 -5 -22 -9 -31 -9 -10 0 -18 -5 -18 -11 0 -6 -5 -9
-12 -7 -13 5 -58 -34 -58 -51 0 -6 -11 -11 -25 -11 -14 0 -25 4 -25 9 0 14 24
57 43 75 21 22 77 102 77 112 0 4 17 26 38 49 20 24 50 63 65 89 29 47 47 59
47 30z m372 -59 c0 -5 -5 -11 -11 -13 -6 -2 -11 4 -11 13 0 9 5 15 11 13 6 -2
11 -8 11 -13z m74 -22 c-4 -4 -11 -1 -16 7 -16 25 -11 35 7 17 9 -9 13 -20 9
-24z m314 17 c0 -8 6 -24 13 -35 8 -11 17 -29 20 -40 6 -16 3 -16 -14 5 -41
50 -56 65 -75 76 -16 10 -14 12 19 11 27 -1 37 -5 37 -17z m-360 -47 c0 -16
-5 -35 -10 -43 -7 -11 -10 -4 -10 28 0 23 5 42 10 42 6 0 10 -12 10 -27z
m1230 -23 c0 -5 -5 -10 -11 -10 -5 0 -7 5 -4 10 3 6 8 10 11 10 2 0 4 -4 4
-10z m-1001 -37 c0 -25 -1 -26 -9 -8 -12 27 -12 35 0 35 6 0 10 -12 9 -27z
m-254 -31 c-7 -15 -8 -15 -15 3 -5 12 -9 14 -9 6 -1 -11 -4 -12 -12 -4 -8 8
-8 15 2 26 11 12 16 12 27 0 8 -8 11 -21 7 -31z m75 9 c0 -10 9 -40 21 -66 11
-25 19 -49 16 -51 -2 -3 -12 14 -22 38 -15 35 -19 40 -24 23 -3 -11 -12 -21
-18 -22 -15 -3 -17 23 -3 32 6 3 10 19 10 36 0 16 5 29 10 29 6 0 10 -8 10
-19z m350 -62 c-5 -18 -11 -34 -14 -36 -3 -3 -1 -16 4 -29 8 -19 6 -24 -6 -24
-9 0 -12 5 -8 12 4 7 3 8 -4 4 -17 -10 -15 -26 3 -26 18 0 18 1 4 -39 -6 -17
-15 -31 -21 -31 -5 0 -7 4 -4 8 3 5 1 26 -5 47 -6 21 -7 41 -2 44 12 9 43 71
43 87 0 8 4 14 9 14 6 0 6 -12 1 -31z m-417 -64 c18 -13 23 -45 7 -45 -5 0
-10 6 -10 13 0 29 -29 -47 -33 -86 -2 -23 -3 11 -3 75 1 95 3 111 11 86 6 -16
19 -36 28 -43z m1628 52 c-10 -9 -11 -8 -5 6 3 10 9 15 12 12 3 -3 0 -11 -7
-18z m-2551 -21 c0 -3 -4 -8 -10 -11 -5 -3 -10 -1 -10 4 0 6 5 11 10 11 6 0
10 -2 10 -4z m2050 0 c0 -9 -30 -14 -35 -6 -4 6 3 10 14 10 12 0 21 -2 21 -4z
m-2014 -43 c-4 -4 -11 -1 -16 7 -16 25 -11 35 7 17 9 -9 13 -20 9 -24z m784
-3 c-14 -11 -32 -20 -40 -20 -10 0 -7 7 10 20 14 11 32 20 40 20 10 0 7 -7
-10 -20z m224 -6 c3 -8 2 -12 -4 -9 -6 3 -10 10 -10 16 0 14 7 11 14 -7z m186
-24 c0 -11 -7 -20 -15 -20 -13 0 -13 3 -3 20 7 11 14 20 15 20 2 0 3 -9 3 -20z
m900 10 c0 -5 -2 -10 -4 -10 -3 0 -8 5 -11 10 -3 6 -1 10 4 10 6 0 11 -4 11
-10z m390 -10 c-8 -5 -19 -10 -25 -10 -5 0 -3 5 5 10 8 5 20 10 25 10 6 0 3
-5 -5 -10z m-2163 -6 c-3 -3 -12 -4 -19 -1 -8 3 -5 6 6 6 11 1 17 -2 13 -5z
m-70 -32 c-33 -4 -57 3 -57 16 0 5 19 4 42 -2 39 -10 40 -11 15 -14z m663 8
c0 -5 -5 -10 -11 -10 -5 0 -7 5 -4 10 3 6 8 10 11 10 2 0 4 -4 4 -10z m-1055
-10 c3 -5 -3 -19 -13 -30 l-19 -21 2 23 c1 13 3 26 4 31 2 10 19 9 26 -3z
m1365 -10 c9 14 12 12 9 -6 0 -4 5 -11 13 -15 9 -6 4 -9 -14 -9 -16 0 -28 2
-28 4 0 2 -3 13 -6 23 -5 15 -4 16 5 3 10 -13 12 -13 21 0z m-330 -4 c0 -3 -4
-8 -10 -11 -5 -3 -10 -1 -10 4 0 6 5 11 10 11 6 0 10 -2 10 -4z m235 -7 c11
-17 -1 -21 -15 -4 -8 9 -8 15 -2 15 6 0 14 -5 17 -11z m170 -29 c3 -5 -3 -10
-15 -10 -12 0 -18 5 -15 10 3 6 10 10 15 10 5 0 12 -4 15 -10z m-65 -20 c0
-19 -18 -19 -23 -1 -3 14 -1 18 9 14 8 -3 14 -9 14 -13z m867 -2 c-3 -8 -6 -5
-6 6 -1 11 2 17 5 13 3 -3 4 -12 1 -19z"/>
<path d="M4860 1770 c0 -5 5 -10 10 -10 6 0 10 5 10 10 0 6 -4 10 -10 10 -5 0
-10 -4 -10 -10z"/>
<path d="M4883 1729 c-1 -10 2 -19 8 -19 11 0 12 27 1 34 -4 2 -9 -4 -9 -15z"/>
<path d="M3172 998 c-8 -15 -9 -35 -3 -58 l9 -35 1 42 c1 23 6 45 11 48 12 7
13 25 2 25 -5 0 -14 -10 -20 -22z"/>
<path d="M2610 686 c0 -2 7 -9 15 -16 13 -11 14 -10 9 4 -5 14 -24 23 -24 12z"/>
<path d="M2860 479 c0 -5 5 -7 10 -4 6 3 10 8 10 11 0 2 -4 4 -10 4 -5 0 -10
-5 -10 -11z"/>
<path d="M2879 428 c-7 -18 -15 -37 -17 -43 -3 -5 4 -2 15 8 11 10 21 29 21
42 0 33 -3 31 -19 -7z"/>
<path d="M1060 1291 c0 -6 5 -13 10 -16 6 -3 10 1 10 9 0 9 -4 16 -10 16 -5 0
-10 -4 -10 -9z"/>
<path d="M895 4090 c-3 -5 1 -10 10 -10 9 0 13 5 10 10 -3 6 -8 10 -10 10 -2
0 -7 -4 -10 -10z"/>
<path d="M1230 4075 c-7 -8 -22 -15 -34 -16 -11 0 -15 -3 -9 -6 17 -6 83 16
83 28 0 14 -26 11 -40 -6z"/>
<path d="M1830 4056 c14 -7 29 -10 34 -8 11 6 -20 20 -44 21 -8 0 -4 -5 10
-13z"/>
<path d="M1366 4051 c-14 -5 -16 -10 -8 -15 7 -4 22 0 34 8 24 17 9 21 -26 7z"/>
<path d="M1515 4030 c-3 -5 3 -10 14 -10 11 0 23 5 26 10 3 6 -3 10 -14 10
-11 0 -23 -4 -26 -10z"/>
<path d="M1778 4033 c7 -3 16 -2 19 1 4 3 -2 6 -13 5 -11 0 -14 -3 -6 -6z"/>
<path d="M1410 4020 c0 -5 5 -10 11 -10 5 0 7 5 4 10 -3 6 -8 10 -11 10 -2 0
-4 -4 -4 -10z"/>
<path d="M1931 3986 c-19 -11 -21 -14 -7 -19 9 -4 16 -2 16 3 0 6 9 10 19 10
11 0 23 5 26 10 9 14 -26 12 -54 -4z"/>
<path d="M1995 3950 c3 -5 11 -10 16 -10 6 0 7 5 4 10 -3 6 -11 10 -16 10 -6
0 -7 -4 -4 -10z"/>
<path d="M2368 3883 c7 -3 16 -2 19 1 4 3 -2 6 -13 5 -11 0 -14 -3 -6 -6z"/>
<path d="M708 3838 c2 -10 10 -22 18 -29 11 -9 16 -6 24 16 13 35 14 34 -18
32 -22 -1 -28 -6 -24 -19z"/>
<path d="M2406 3853 c-4 -4 -19 -9 -34 -11 -15 -2 -28 -5 -30 -7 -7 -6 80 -45
89 -39 15 9 10 34 -6 34 -9 0 -12 6 -9 15 7 16 2 20 -10 8z"/>
<path d="M175 3663 c-50 -7 -109 -20 -133 -29 -42 -15 -42 -16 -42 -65 0 -50
5 -55 48 -50 7 1 15 -5 18 -14 7 -16 39 -21 48 -6 8 12 74 12 82 -1 3 -5 -2
-19 -13 -31 -16 -19 -16 -20 0 -8 15 12 20 11 37 -4 16 -14 20 -15 20 -4 0 8
-6 21 -12 28 -10 11 -10 13 0 7 6 -4 12 -3 12 3 0 6 6 8 14 5 8 -3 19 3 26 15
6 12 17 21 25 21 19 0 19 -5 -2 -38 l-17 -27 25 23 c29 25 39 28 39 8 0 -16
39 -66 40 -51 0 6 -4 24 -9 41 l-9 30 64 -12 c36 -6 67 -8 70 -3 3 5 0 9 -5 9
-19 0 -12 22 9 27 11 3 20 10 20 15 0 6 14 8 36 3 35 -6 36 -6 21 15 -8 12
-25 29 -37 37 -17 12 -23 13 -37 1 -14 -11 -15 -10 -9 9 8 25 12 24 -114 43
-114 17 -119 17 -215 3z m95 -143 c0 -5 -4 -10 -10 -10 -5 0 -10 5 -10 10 0 6
5 10 10 10 6 0 10 -4 10 -10z"/>
<path d="M2866 3661 c-3 -5 0 -11 7 -14 8 -3 14 1 14 9 0 16 -13 19 -21 5z"/>
<path d="M1580 3614 c0 -15 22 -44 31 -39 18 12 10 45 -11 45 -11 0 -20 -3
-20 -6z"/>
<path d="M3190 3565 c0 -8 2 -15 4 -15 2 0 6 7 10 15 3 8 1 15 -4 15 -6 0 -10
-7 -10 -15z"/>
<path d="M1630 3525 c-9 -11 -10 -18 -1 -28 6 -8 8 -17 4 -20 -3 -4 -1 -7 5
-7 6 0 15 12 18 26 8 32 -8 51 -26 29z"/>
<path d="M0 3486 c0 -17 27 -29 35 -16 4 6 3 15 0 20 -9 15 -35 12 -35 -4z"/>
<path d="M257 3463 c-2 -5 -1 -17 3 -27 6 -19 7 -19 12 2 6 21 -6 40 -15 25z"/>
<path d="M437 3452 c-14 -3 -16 -10 -11 -38 4 -23 2 -34 -6 -34 -7 0 -9 -8 -4
-22 10 -32 8 -48 -13 -96 -13 -31 -26 -45 -50 -53 -18 -6 -33 -15 -33 -19 0
-14 35 -30 64 -30 18 0 25 -6 28 -22 3 -22 8 -23 85 -23 67 0 86 3 100 19 17
18 17 18 -4 7 -12 -6 -34 -10 -50 -10 -18 1 -21 3 -10 6 12 3 16 11 12 23 -3
10 -1 21 5 25 5 3 10 1 10 -5 0 -7 6 -10 13 -7 19 6 8 69 -18 97 -13 14 -31
39 -40 55 l-17 30 6 -30 c2 -16 8 -42 12 -57 5 -22 3 -28 -9 -28 -11 0 -19 17
-28 55 -11 50 -10 57 5 68 16 12 16 14 -5 32 -12 11 -19 14 -15 8 4 -7 3 -13
-2 -13 -16 0 -23 32 -11 47 14 16 10 21 -14 15z m83 -226 c0 -3 -4 -8 -10 -11
-5 -3 -10 -1 -10 4 0 6 5 11 10 11 6 0 10 -2 10 -4z"/>
<path d="M1617 3442 c-19 -21 -22 -50 -7 -72 9 -13 13 -12 26 5 32 41 34 52
15 69 -16 15 -19 15 -34 -2z"/>
<path d="M310 3442 c0 -5 7 -17 15 -28 8 -10 15 -32 15 -48 0 -29 0 -29 19
-10 10 10 16 25 13 33 -3 7 1 17 9 22 10 6 7 9 -12 9 -15 0 -29 7 -33 15 -6
16 -26 21 -26 7z"/>
<path d="M240 3409 c0 -5 4 -9 9 -9 5 0 7 -9 4 -20 -5 -21 17 -80 30 -80 4 0
7 22 6 48 -2 39 -7 50 -26 59 -13 6 -23 7 -23 2z"/>
<path d="M860 3350 c0 -5 5 -10 10 -10 6 0 10 5 10 10 0 6 -4 10 -10 10 -5 0
-10 -4 -10 -10z"/>
<path d="M1900 3340 c-6 -11 -8 -20 -6 -20 3 0 10 9 16 20 6 11 8 20 6 20 -3
0 -10 -9 -16 -20z"/>
<path d="M174 3337 c10 -8 16 -22 14 -33 -3 -14 -11 -18 -34 -17 -28 2 -31 0
-26 -23 2 -14 13 -31 23 -37 11 -7 19 -15 19 -19 0 -15 -32 -8 -57 12 -35 27
-47 25 -27 -5 20 -31 58 -42 90 -25 28 16 30 28 7 45 -19 14 -9 35 18 35 14 0
19 -7 19 -26 0 -16 5 -24 12 -22 11 4 13 17 9 61 -2 19 -50 67 -68 67 -15 0
-15 -2 1 -13z"/>
<path d="M3545 3330 c4 -6 11 -8 16 -4 5 3 16 0 24 -6 9 -7 15 -8 15 -2 0 11
-23 22 -46 22 -9 0 -12 -5 -9 -10z"/>
<path d="M1010 3283 c0 -13 5 -23 11 -23 5 0 16 -15 24 -34 19 -44 59 -54 82
-19 14 22 14 25 -2 43 -12 13 -31 20 -56 20 -26 0 -41 6 -48 18 -9 15 -10 15
-11 -5z"/>
<path d="M262 3268 c3 -7 15 -14 27 -16 12 -2 25 -10 28 -18 6 -15 31 -18 51
-6 9 6 7 14 -8 30 -23 25 -105 33 -98 10z"/>
<path d="M611 3256 c-8 -10 -8 -16 2 -25 16 -13 27 -5 27 21 0 21 -13 23 -29
4z"/>
<path d="M790 3249 c0 -5 5 -7 10 -4 6 3 10 8 10 11 0 2 -4 4 -10 4 -5 0 -10
-5 -10 -11z"/>
<path d="M61 3164 c13 -16 50 -15 56 2 2 5 -12 10 -32 11 -30 1 -34 -1 -24
-13z"/>
<path d="M1211 3086 c-14 -17 -7 -36 15 -36 15 0 18 18 5 38 -6 10 -10 10 -20
-2z"/>
<path d="M1030 3053 c0 -11 7 -26 15 -33 20 -17 20 7 0 34 -15 19 -15 19 -15
-1z"/>
<path d="M1223 3013 c9 -9 19 -14 23 -11 10 10 -6 28 -24 28 -15 0 -15 -1 1
-17z"/>
<path d="M3155 2959 c-10 -15 1 -22 24 -14 12 3 19 11 16 16 -8 12 -32 11 -40
-2z"/>
<path d="M3509 2943 c-13 -15 -12 -15 9 -4 23 12 28 21 13 21 -5 0 -15 -7 -22
-17z"/>
<path d="M1217 2943 c-13 -12 -7 -43 8 -43 9 0 15 9 15 25 0 24 -10 32 -23 18z"/>
<path d="M3166 2915 c4 -8 8 -15 10 -15 2 0 4 7 4 15 0 8 -4 15 -10 15 -5 0
-7 -7 -4 -15z"/>
<path d="M276 2895 c-9 -26 -7 -32 5 -12 6 10 9 21 6 23 -2 3 -7 -2 -11 -11z"/>
<path d="M2920 2900 c0 -5 5 -10 11 -10 5 0 7 5 4 10 -3 6 -8 10 -11 10 -2 0
-4 -4 -4 -10z"/>
<path d="M3125 2820 c3 -5 8 -10 11 -10 2 0 4 5 4 10 0 6 -5 10 -11 10 -5 0
-7 -4 -4 -10z"/>
<path d="M3523 2785 c0 -19 4 -32 8 -29 9 5 9 64 -1 64 -4 0 -7 -16 -7 -35z"/>
<path d="M3130 2786 c0 -2 7 -7 16 -10 8 -3 12 -2 9 4 -6 10 -25 14 -25 6z"/>
<path d="M3557 2775 c-8 -20 -4 -29 11 -24 5 2 6 13 2 23 -6 19 -7 19 -13 1z"/>
<path d="M3090 2774 c0 -9 60 -77 81 -91 14 -10 19 -10 30 3 7 8 8 14 3 13
-19 -3 -34 1 -34 11 0 6 7 10 15 10 10 0 15 10 14 33 0 30 -1 31 -11 10 -14
-28 -24 -28 -65 -3 -18 11 -33 17 -33 14z"/>
<path d="M3743 2764 c-27 -12 -11 -22 27 -17 30 4 40 2 40 -8 0 -38 109 -100
136 -78 11 9 18 8 29 -1 20 -17 31 -5 15 15 -8 9 -22 14 -32 12 -14 -4 -55 18
-78 43 -3 3 -16 7 -30 9 -14 1 -27 7 -30 12 -7 11 -61 20 -77 13z"/>
<path d="M3928 2753 c6 -2 18 -2 25 0 6 3 1 5 -13 5 -14 0 -19 -2 -12 -5z"/>
<path d="M3472 2690 c-55 -52 -63 -63 -34 -53 35 13 72 45 72 63 0 11 8 24 18
29 9 6 12 11 7 11 -6 0 -34 -22 -63 -50z"/>
<path d="M3780 2720 c0 -5 5 -10 11 -10 5 0 7 5 4 10 -3 6 -8 10 -11 10 -2 0
-4 -4 -4 -10z"/>
<path d="M1216 2705 c-10 -8 -15 -19 -11 -25 4 -6 2 -17 -4 -23 -11 -14 -13
-29 -12 -101 l1 -49 -32 7 c-27 5 -30 3 -18 -7 22 -17 25 -127 3 -127 -8 0
-13 -6 -10 -12 2 -7 -2 -28 -10 -45 -7 -18 -10 -33 -6 -33 5 0 8 -14 9 -31 1
-16 7 -49 14 -72 7 -23 14 -49 17 -57 15 -52 53 150 53 286 0 45 7 119 16 164
8 45 14 95 12 110 -3 26 -5 27 -22 15z"/>
<path d="M3560 2709 c0 -5 5 -7 10 -4 6 3 10 8 10 11 0 2 -4 4 -10 4 -5 0 -10
-5 -10 -11z"/>
<path d="M3284 2649 c-3 -6 -1 -16 5 -22 8 -8 11 -5 11 11 0 24 -5 28 -16 11z"/>
<path d="M330 2640 c0 -5 5 -10 11 -10 5 0 7 5 4 10 -3 6 -8 10 -11 10 -2 0
-4 -4 -4 -10z"/>
<path d="M3450 2615 l-25 -14 28 -1 c16 0 26 -4 23 -9 -3 -5 -15 -7 -26 -4
-11 3 -20 0 -20 -6 0 -6 19 -11 45 -11 44 0 60 12 30 24 -8 3 -15 12 -15 21 0
18 -8 18 -40 0z"/>
<path d="M3555 2620 c-3 -5 -1 -10 6 -10 6 0 17 -6 23 -14 15 -19 56 -31 56
-16 0 6 -4 8 -10 5 -5 -3 -10 1 -10 10 0 10 -7 15 -17 13 -10 -2 -17 3 -15 10
2 14 -24 16 -33 2z"/>
<path d="M314 2600 c0 -13 4 -16 10 -10 7 7 7 13 0 20 -6 6 -10 3 -10 -10z"/>
<path d="M260 2600 c0 -5 5 -10 11 -10 5 0 7 5 4 10 -3 6 -8 10 -11 10 -2 0
-4 -4 -4 -10z"/>
<path d="M3090 2600 c0 -17 39 -45 58 -42 15 4 16 -20 0 -36 -13 -13 -10 -14
49 -16 39 -2 41 0 41 25 -1 28 -25 39 -85 39 -21 0 -23 3 -14 14 10 12 8 13
-9 9 -13 -4 -26 0 -31 8 -7 12 -9 11 -9 -1z"/>
<path d="M3540 2580 c0 -5 7 -10 15 -10 8 0 15 5 15 10 0 6 -7 10 -15 10 -8 0
-15 -4 -15 -10z"/>
<path d="M3580 2560 c0 -5 5 -10 11 -10 5 0 7 5 4 10 -3 6 -8 10 -11 10 -2 0
-4 -4 -4 -10z"/>
<path d="M1920 2550 c-10 -6 -11 -13 -5 -19 6 -6 16 -7 25 -1 10 6 11 13 5 19
-6 6 -16 7 -25 1z"/>
<path d="M3809 2537 c7 -7 14 -8 21 -1 6 6 2 10 -12 11 -16 2 -18 -1 -9 -10z"/>
<path d="M3102 2514 c10 -10 20 -15 24 -12 3 4 -5 12 -18 18 -22 12 -22 12 -6
-6z"/>
<path d="M3375 2520 c3 -5 11 -10 16 -10 6 0 7 5 4 10 -3 6 -11 10 -16 10 -6
0 -7 -4 -4 -10z"/>
<path d="M3421 2514 c0 -11 3 -14 6 -6 3 7 2 16 -1 19 -3 4 -6 -2 -5 -13z"/>
<path d="M3727 2523 c-13 -12 -7 -19 19 -21 22 -2 25 0 14 13 -14 16 -23 19
-33 8z"/>
<path d="M3622 2506 c7 -8 15 -12 17 -11 5 6 -10 25 -20 25 -5 0 -4 -6 3 -14z"/>
<path d="M3780 2499 c0 -5 5 -7 10 -4 6 3 10 8 10 11 0 2 -4 4 -10 4 -5 0 -10
-5 -10 -11z"/>
<path d="M3310 2470 c15 -28 13 -30 -20 -23 -38 7 -41 -14 -2 -23 15 -4 34
-12 42 -19 8 -6 23 -15 33 -18 9 -4 17 -13 17 -22 0 -18 11 -20 27 -4 8 8 13
8 18 -1 5 -8 13 -6 27 6 31 29 134 21 169 -12 15 -14 29 -21 33 -16 7 12 -54
56 -84 59 -14 2 -37 5 -52 8 -16 2 -28 0 -28 -5 0 -6 -11 -10 -25 -10 -14 0
-25 -5 -25 -11 0 -8 -4 -8 -15 1 -8 6 -19 9 -25 5 -5 -3 -10 1 -10 9 0 9 -3
15 -7 15 -28 -5 -51 25 -45 57 1 7 -7 14 -18 17 -16 4 -18 2 -10 -13z"/>
<path d="M3360 2475 c0 -8 16 -22 36 -30 50 -21 55 -19 17 6 -18 12 -33 25
-33 30 0 5 -4 9 -10 9 -5 0 -10 -7 -10 -15z"/>
<path d="M3455 2480 c-3 -5 -13 -6 -22 -3 -11 4 -14 3 -9 -5 4 -7 13 -12 21
-12 18 0 28 -32 13 -42 -8 -5 -9 -8 -2 -8 7 0 19 11 28 25 13 19 13 23 2 19
-11 -4 -13 0 -9 15 5 21 -11 29 -22 11z"/>
<path d="M3510 2480 c0 -5 5 -10 10 -10 6 0 10 5 10 10 0 6 -4 10 -10 10 -5 0
-10 -4 -10 -10z"/>
<path d="M3624 2459 c-10 -11 -14 -22 -9 -27 4 -4 10 -2 12 5 2 7 11 9 19 6 8
-3 14 0 14 7 0 6 4 9 9 5 5 -3 12 -1 15 4 12 18 -43 18 -60 0z"/>
<path d="M4085 2470 c3 -5 11 -10 16 -10 6 0 7 5 4 10 -3 6 -11 10 -16 10 -6
0 -7 -4 -4 -10z"/>
<path d="M2980 2445 c0 -8 4 -15 9 -15 5 0 14 7 21 15 10 13 9 15 -9 15 -12 0
-21 -6 -21 -15z"/>
<path d="M3570 2455 c0 -18 19 -40 26 -32 4 4 0 15 -9 24 -9 10 -17 13 -17 8z"/>
<path d="M2905 2430 c-3 -5 1 -10 9 -10 9 0 16 -9 16 -20 0 -26 29 -40 57 -25
26 13 19 26 -24 49 -37 19 -49 20 -58 6z"/>
<path d="M3680 2386 c0 -2 7 -7 16 -10 8 -3 12 -2 9 4 -6 10 -25 14 -25 6z"/>
<path d="M3925 2380 c-4 -7 3 -10 19 -8 35 5 45 18 13 18 -14 0 -29 -5 -32
-10z"/>
<path d="M4134 2365 c11 -8 27 -15 35 -15 10 1 7 6 -9 15 -33 19 -50 18 -26 0z"/>
<path d="M3803 2359 c-6 -6 -39 -13 -74 -17 -58 -5 -61 -6 -32 -14 18 -5 50
-4 74 1 23 5 47 8 53 5 6 -2 18 1 26 6 13 9 13 11 0 20 -20 13 -33 13 -47 -1z"/>
<path d="M3885 2360 c-3 -5 -2 -10 4 -10 5 0 13 5 16 10 3 6 2 10 -4 10 -5 0
-13 -4 -16 -10z"/>
<path d="M2827 2353 c-4 -3 -7 -13 -7 -22 1 -13 3 -13 11 2 11 19 8 33 -4 20z"/>
<path d="M2017 2336 c-4 -10 -1 -13 9 -9 15 6 19 23 5 23 -5 0 -11 -7 -14 -14z"/>
<path d="M3587 2328 c-8 -30 -1 -35 12 -9 6 11 7 22 2 25 -5 3 -11 -4 -14 -16z"/>
<path d="M446 2332 c-2 -4 4 -9 15 -9 10 -1 19 2 19 8 0 11 -27 12 -34 1z"/>
<path d="M2685 2320 c-16 -11 -38 -20 -48 -20 -10 0 -15 -5 -12 -10 4 -6 1
-17 -5 -25 -18 -22 -2 -38 32 -31 16 3 39 1 51 -5 17 -10 24 -8 39 11 17 21
17 24 2 41 -10 11 -24 19 -33 19 -12 0 -9 6 9 20 34 26 5 26 -35 0z m39 -55
c-4 -8 -11 -12 -16 -9 -6 4 -5 10 3 15 19 12 19 11 13 -6z"/>
<path d="M3318 2319 c-28 -16 -22 -39 10 -40 43 -2 55 2 68 19 11 14 9 18 -9
24 -33 9 -50 9 -69 -3z"/>
<path d="M2007 2297 c-11 -29 -9 -43 4 -30 6 6 9 19 7 29 -3 18 -4 18 -11 1z"/>
<path d="M2045 2300 c-3 -5 -1 -10 4 -10 6 0 11 5 11 10 0 6 -2 10 -4 10 -3 0
-8 -4 -11 -10z"/>
<path d="M2825 2280 c-3 -5 1 -10 9 -10 8 0 18 5 21 10 3 6 -1 10 -9 10 -8 0
-18 -4 -21 -10z"/>
<path d="M967 2273 c-10 -18 6 -85 22 -91 9 -3 19 -10 23 -16 5 -7 11 -7 20 2
8 8 9 15 3 20 -13 9 -17 32 -6 32 10 0 27 -39 23 -53 -1 -5 2 -6 8 -2 5 3 10
3 10 -2 0 -4 14 -22 30 -40 27 -28 29 -35 18 -57 -6 -15 -15 -26 -20 -26 -4 0
-7 -12 -6 -27 2 -39 -11 -73 -28 -73 -19 0 -18 -17 3 -28 21 -12 10 -47 -13
-38 -9 3 -22 6 -30 6 -8 0 -14 6 -14 14 0 8 -15 32 -33 54 -19 22 -39 55 -46
73 -31 82 -32 84 -42 68 -7 -11 -9 -11 -9 4 0 10 -4 15 -10 12 -21 -13 1 -146
24 -142 6 1 10 -6 8 -16 -2 -9 4 -20 13 -23 8 -3 15 -15 15 -25 0 -11 10 -23
24 -28 13 -5 26 -16 29 -24 7 -18 -3 -97 -13 -97 -4 0 -19 17 -33 37 -15 21
-27 32 -27 25 0 -24 51 -113 68 -119 19 -6 72 -61 72 -74 0 -5 4 -9 9 -9 10 0
33 53 29 66 -2 5 2 27 9 49 29 99 53 216 59 288 l6 79 -39 41 c-22 23 -52 58
-68 77 -15 19 -32 36 -36 36 -5 1 -16 2 -24 3 -8 0 -12 7 -9 16 6 15 -11 22
-19 8z"/>
<path d="M2216 2245 c-3 -9 0 -15 9 -15 8 0 15 7 15 15 0 8 -4 15 -9 15 -5 0
-11 -7 -15 -15z"/>
<path d="M3383 2250 c-15 -6 -20 -15 -16 -29 7 -26 7 -26 38 1 35 30 23 46
-22 28z"/>
<path d="M3650 2256 c0 -2 7 -7 16 -10 8 -3 12 -2 9 4 -6 10 -25 14 -25 6z"/>
<path d="M228 2243 c7 -3 16 -2 19 1 4 3 -2 6 -13 5 -11 0 -14 -3 -6 -6z"/>
<path d="M3440 2245 c0 -5 5 -17 10 -25 5 -8 10 -10 10 -5 0 6 -5 17 -10 25
-5 8 -10 11 -10 5z"/>
<path d="M780 2231 c0 -5 7 -12 16 -15 14 -5 15 -4 4 9 -14 17 -20 19 -20 6z"/>
<path d="M2385 2229 c-4 -6 -5 -13 -2 -16 7 -7 27 6 27 18 0 12 -17 12 -25 -2z"/>
<path d="M3007 2213 c-23 -12 -28 -20 -24 -39 2 -14 0 -27 -5 -30 -4 -3 -6
-10 -2 -15 3 -5 15 2 26 16 12 15 26 24 34 21 8 -3 21 -9 29 -12 21 -8 20 39
-1 60 -18 19 -20 19 -57 -1z"/>
<path d="M3097 2211 c6 -7 9 -19 7 -26 -3 -6 2 -12 11 -12 21 0 19 11 -7 33
-13 10 -18 12 -11 5z"/>
<path d="M4090 2202 c0 -12 19 -26 26 -19 2 2 -2 10 -11 17 -9 8 -15 8 -15 2z"/>
<path d="M780 2160 c0 -32 1 -33 17 -17 16 16 16 18 0 34 -16 16 -17 15 -17
-17z"/>
<path d="M2876 2182 c-3 -6 -1 -14 5 -17 15 -10 25 3 12 16 -7 7 -13 7 -17 1z"/>
<path d="M3490 2165 c0 -14 4 -25 9 -25 12 0 19 21 13 38 -8 21 -22 13 -22
-13z"/>
<path d="M10 2170 c0 -5 5 -10 11 -10 5 0 7 5 4 10 -3 6 -8 10 -11 10 -2 0 -4
-4 -4 -10z"/>
<path d="M2420 2155 c0 -8 7 -15 15 -15 8 0 15 7 15 15 0 8 -7 15 -15 15 -8 0
-15 -7 -15 -15z"/>
<path d="M280 2150 c0 -5 5 -10 10 -10 6 0 10 5 10 10 0 6 -4 10 -10 10 -5 0
-10 -4 -10 -10z"/>
<path d="M2323 2144 c-3 -10 -20 -29 -36 -44 -18 -16 -26 -29 -20 -33 10 -7
83 59 83 75 0 16 -21 18 -27 2z"/>
<path d="M2615 2140 c6 -18 4 -19 -26 -8 -25 9 -34 8 -37 0 -2 -7 -8 -10 -13
-6 -5 3 -9 -2 -9 -11 0 -18 8 -21 73 -30 28 -4 47 -11 47 -19 0 -7 9 -21 21
-32 21 -19 21 -18 39 4 10 12 30 23 44 24 15 1 25 7 23 13 -3 5 -18 9 -36 7
-22 -1 -31 2 -31 13 0 8 -14 17 -35 21 -21 4 -37 13 -40 25 -4 10 -11 19 -16
19 -6 0 -8 -9 -4 -20z"/>
<path d="M3940 2144 c0 -9 5 -14 12 -12 18 6 21 28 4 28 -9 0 -16 -7 -16 -16z"/>
<path d="M4142 2144 c10 -10 20 -15 24 -12 3 4 -5 12 -18 18 -22 12 -22 12 -6
-6z"/>
<path d="M2250 2134 c0 -8 5 -12 10 -9 6 3 10 10 10 16 0 5 -4 9 -10 9 -5 0
-10 -7 -10 -16z"/>
<path d="M2437 2098 c-8 -28 -6 -29 31 -22 27 6 30 9 21 25 -13 26 -45 24 -52
-3z"/>
<path d="M2954 2105 c-9 -22 17 -48 40 -39 21 8 17 23 -12 42 -19 13 -22 12
-28 -3z"/>
<path d="M3361 2104 c6 -8 5 -13 -6 -18 -26 -9 -17 -28 13 -24 15 2 26 7 24
13 -2 5 6 13 18 17 31 11 16 26 -25 25 -25 -1 -32 -4 -24 -13z"/>
<path d="M3876 2111 c-11 -4 -15 -10 -9 -14 5 -3 19 0 29 8 20 15 11 18 -20 6z"/>
<path d="M4173 2096 c0 -14 5 -27 13 -30 10 -4 10 1 2 25 -12 35 -15 36 -15 5z"/>
<path d="M3820 2100 c0 -5 5 -10 11 -10 5 0 7 5 4 10 -3 6 -8 10 -11 10 -2 0
-4 -4 -4 -10z"/>
<path d="M2800 2096 c0 -2 7 -9 15 -16 12 -10 15 -10 15 4 0 9 -7 16 -15 16
-8 0 -15 -2 -15 -4z"/>
<path d="M2534 2065 c-7 -18 3 -35 22 -35 8 0 14 10 14 25 0 27 -27 35 -36 10z"/>
<path d="M2862 2068 c6 -16 36 -34 44 -25 9 9 -15 37 -33 37 -8 0 -13 -5 -11
-12z"/>
<path d="M2940 2030 c0 -5 5 -10 11 -10 5 0 7 5 4 10 -3 6 -8 10 -11 10 -2 0
-4 -4 -4 -10z"/>
<path d="M3898 2033 c7 -3 16 -2 19 1 4 3 -2 6 -13 5 -11 0 -14 -3 -6 -6z"/>
<path d="M3860 2007 c0 -7 9 -18 20 -25 11 -7 20 -10 20 -7 0 3 -9 14 -20 25
-12 12 -20 15 -20 7z"/>
<path d="M3170 1980 c0 -11 5 -20 10 -20 6 0 10 9 10 20 0 11 -4 20 -10 20 -5
0 -10 -9 -10 -20z"/>
<path d="M3237 1983 c-4 -3 -7 -11 -7 -17 0 -6 5 -5 12 2 6 6 9 14 7 17 -3 3
-9 2 -12 -2z"/>
<path d="M3845 1960 c3 -5 8 -10 11 -10 2 0 4 5 4 10 0 6 -5 10 -11 10 -5 0
-7 -4 -4 -10z"/>
<path d="M3935 1960 c3 -5 8 -10 11 -10 2 0 4 5 4 10 0 6 -5 10 -11 10 -5 0
-7 -4 -4 -10z"/>
<path d="M4000 1966 c0 -2 8 -10 18 -17 15 -13 16 -12 3 4 -13 16 -21 21 -21
13z"/>
<path d="M810 1948 c0 -9 7 -24 16 -32 30 -31 33 -13 4 24 -15 19 -20 21 -20
8z"/>
<path d="M3865 1920 c-3 -5 -1 -10 4 -10 6 0 11 5 11 10 0 6 -2 10 -4 10 -3 0
-8 -4 -11 -10z"/>
<path d="M730 1909 c0 -6 8 -22 19 -35 15 -19 21 -21 30 -11 8 10 4 19 -19 36
-17 12 -30 17 -30 10z"/>
<path d="M3967 1909 c7 -7 15 -10 18 -7 3 3 -2 9 -12 12 -14 6 -15 5 -6 -5z"/>
<path d="M1930 1875 c-28 -34 57 -63 100 -35 13 9 11 13 -10 30 -30 23 -73 26
-90 5z"/>
<path d="M3855 1880 c3 -5 8 -10 11 -10 2 0 4 5 4 10 0 6 -5 10 -11 10 -5 0
-7 -4 -4 -10z"/>
<path d="M4090 1884 c0 -13 18 -39 24 -34 2 3 -2 14 -10 24 -8 11 -14 16 -14
10z"/>
<path d="M3930 1870 c0 -5 5 -10 10 -10 6 0 10 5 10 10 0 6 -4 10 -10 10 -5 0
-10 -4 -10 -10z"/>
<path d="M4067 1859 c4 -13 8 -18 11 -10 2 7 -1 18 -6 23 -8 8 -9 4 -5 -13z"/>
<path d="M210 1849 c7 -11 14 -18 17 -15 8 8 -5 36 -17 36 -7 0 -7 -6 0 -21z"/>
<path d="M1850 1850 c0 -5 7 -10 15 -10 8 0 15 5 15 10 0 6 -7 10 -15 10 -8 0
-15 -4 -15 -10z"/>
<path d="M3885 1840 c3 -5 8 -10 11 -10 2 0 4 5 4 10 0 6 -5 10 -11 10 -5 0
-7 -4 -4 -10z"/>
<path d="M390 1830 c0 -5 5 -10 10 -10 6 0 10 5 10 10 0 6 -4 10 -10 10 -5 0
-10 -4 -10 -10z"/>
<path d="M790 1815 c0 -9 5 -15 11 -13 6 2 11 8 11 13 0 5 -5 11 -11 13 -6 2
-11 -4 -11 -13z"/>
<path d="M320 1810 c0 -5 5 -10 11 -10 5 0 7 5 4 10 -3 6 -8 10 -11 10 -2 0
-4 -4 -4 -10z"/>
<path d="M3945 1810 c-3 -5 -1 -10 4 -10 6 0 11 5 11 10 0 6 -2 10 -4 10 -3 0
-8 -4 -11 -10z"/>
<path d="M4005 1800 c-3 -5 -1 -10 4 -10 6 0 11 5 11 10 0 6 -2 10 -4 10 -3 0
-8 -4 -11 -10z"/>
<path d="M4125 1800 c3 -5 22 -10 41 -10 19 0 34 5 34 10 0 6 -18 10 -41 10
-24 0 -38 -4 -34 -10z"/>
<path d="M467 1784 c-8 -8 1 -24 14 -24 5 0 9 7 9 15 0 15 -12 20 -23 9z"/>
<path d="M880 1780 c0 -5 5 -10 10 -10 6 0 10 5 10 10 0 6 -4 10 -10 10 -5 0
-10 -4 -10 -10z"/>
<path d="M430 1730 c0 -5 5 -10 11 -10 5 0 7 5 4 10 -3 6 -8 10 -11 10 -2 0
-4 -4 -4 -10z"/>
<path d="M57 1674 c-8 -8 1 -24 14 -24 5 0 9 7 9 15 0 15 -12 20 -23 9z"/>
<path d="M4168 1673 c12 -2 32 -2 45 0 12 2 2 4 -23 4 -25 0 -35 -2 -22 -4z"/>
<path d="M122 1645 c-18 -39 -15 -45 18 -33 39 13 46 26 24 43 -26 20 -29 19
-42 -10z"/>
<path d="M3737 1643 c-10 -9 -8 -33 2 -33 5 0 11 9 14 20 5 20 -3 26 -16 13z"/>
<path d="M4105 1590 c3 -5 11 -10 16 -10 6 0 7 5 4 10 -3 6 -11 10 -16 10 -6
0 -7 -4 -4 -10z"/>
<path d="M190 1580 c0 -5 5 -10 10 -10 6 0 10 5 10 10 0 6 -4 10 -10 10 -5 0
-10 -4 -10 -10z"/>
<path d="M31 1543 c-18 -19 -3 -48 25 -48 14 0 19 7 19 30 0 34 -22 43 -44 18z"/>
<path d="M1950 1480 c0 -5 5 -10 11 -10 5 0 7 5 4 10 -3 6 -8 10 -11 10 -2 0
-4 -4 -4 -10z"/>
<path d="M0 1449 c0 -11 4 -18 10 -14 5 3 7 12 3 20 -7 21 -13 19 -13 -6z"/>
<path d="M479 1443 c-24 -6 -2 -103 23 -103 21 0 22 19 5 70 -8 24 -17 35 -28
33z"/>
<path d="M572 1429 c1 -13 8 -23 13 -21 15 3 12 35 -3 40 -9 3 -13 -3 -10 -19z"/>
<path d="M4250 1440 c0 -5 5 -10 10 -10 6 0 10 5 10 10 0 6 -4 10 -10 10 -5 0
-10 -4 -10 -10z"/>
<path d="M316 1365 c4 -8 8 -15 10 -15 2 0 4 7 4 15 0 8 -4 15 -10 15 -5 0 -7
-7 -4 -15z"/>
<path d="M4438 1355 c-3 -14 -2 -25 1 -25 3 0 12 -14 20 -32 13 -28 15 -30 21
-12 4 10 5 23 2 29 -4 5 -5 22 -3 37 4 38 -34 40 -41 3z"/>
<path d="M3800 1344 c0 -8 5 -12 10 -9 6 4 8 11 5 16 -9 14 -15 11 -15 -7z"/>
<path d="M4415 1293 c-5 -12 -9 -14 -12 -5 -6 15 -30 16 -39 0 -5 -7 -2 -9 9
-5 10 4 18 -1 22 -13 4 -12 12 -17 23 -14 14 5 13 3 -2 -10 -23 -18 -36 -20
-36 -6 0 6 -4 10 -10 10 -17 0 -11 -14 10 -28 24 -15 50 -2 66 33 8 16 8 27
-1 39 -15 20 -21 20 -30 -1z"/>
<path d="M4310 1270 c-12 -8 -10 -10 8 -10 13 0 20 4 17 10 -7 12 -6 12 -25 0z"/>
<path d="M4510 1255 c0 -8 4 -15 10 -15 5 0 7 7 4 15 -4 8 -8 15 -10 15 -2 0
-4 -7 -4 -15z"/>
<path d="M4568 1247 c-4 -19 -1 -27 8 -27 15 0 16 6 5 35 -7 17 -8 17 -13 -8z"/>
<path d="M1895 1230 c-3 -5 -2 -10 4 -10 5 0 13 5 16 10 3 6 2 10 -4 10 -5 0
-13 -4 -16 -10z"/>
<path d="M3937 1234 c-9 -9 4 -35 14 -28 5 3 9 12 9 20 0 14 -12 19 -23 8z"/>
<path d="M4264 1219 c-3 -6 -13 -8 -21 -5 -9 4 -22 -2 -30 -11 -10 -13 -16
-15 -19 -5 -10 23 -23 1 -14 -23 8 -20 6 -25 -6 -25 -8 0 -12 5 -9 10 8 12
-25 13 -44 1 -7 -5 -10 -14 -7 -20 4 -6 12 -8 18 -5 7 4 8 -2 3 -17 -7 -23 -7
-23 12 -6 22 19 43 23 43 7 0 -5 -7 -10 -15 -10 -8 0 -15 -9 -15 -20 0 -11 4
-20 10 -20 5 0 7 6 4 14 -3 9 4 15 21 18 14 3 23 3 20 0 -9 -10 27 -41 41 -35
8 3 14 1 14 -5 0 -6 -6 -13 -12 -15 -7 -3 -1 -6 14 -6 14 -1 28 4 30 9 2 6 18
11 36 13 18 1 32 8 32 15 0 17 17 15 23 -2 7 -18 38 -14 51 7 8 12 5 22 -14
42 -13 14 -28 25 -35 25 -6 0 -26 14 -44 31 -40 36 -77 53 -87 38z m-49 -49
c3 -5 1 -10 -4 -10 -6 0 -11 5 -11 10 0 6 2 10 4 10 3 0 8 -4 11 -10z"/>
<path d="M4130 1194 c0 -8 5 -12 10 -9 6 3 10 10 10 16 0 5 -4 9 -10 9 -5 0
-10 -7 -10 -16z"/>
<path d="M3840 1174 c0 -8 5 -12 10 -9 6 4 8 11 5 16 -9 14 -15 11 -15 -7z"/>
<path d="M7 1163 c-10 -19 -8 -125 3 -139 9 -10 9 -14 1 -14 -15 0 -14 -27 2
-34 10 -5 10 -7 -1 -12 -22 -10 -15 -119 11 -165 21 -38 21 -41 4 -53 -10 -8
-15 -20 -11 -29 3 -8 1 -18 -5 -22 -6 -3 -11 -22 -11 -40 0 -25 4 -33 14 -29
8 3 17 1 21 -5 3 -6 -1 -11 -11 -11 -10 0 -14 -3 -10 -7 4 -4 15 -8 24 -8 9 0
21 -10 27 -22 5 -13 14 -23 19 -23 4 0 4 -6 -1 -12 -6 -9 -2 -20 15 -36 l24
-23 -7 23 -6 23 21 -25 21 -24 -20 -8 c-12 -4 -21 -12 -21 -18 0 -5 -5 -10
-11 -10 -6 0 -9 7 -5 15 6 18 -41 65 -66 65 -9 0 -19 6 -21 13 -3 6 -6 2 -6
-10 -1 -13 4 -23 9 -23 13 0 13 -37 0 -45 -6 -3 -10 -33 -10 -66 0 -47 3 -59
16 -59 8 0 12 -5 8 -11 -4 -7 0 -9 14 -5 17 6 23 2 28 -19 3 -14 4 -28 1 -31
-3 -4 -2 -17 3 -30 8 -19 6 -24 -6 -24 -8 0 -12 -5 -8 -11 3 -6 -3 -23 -14
-39 l-21 -27 30 -23 c29 -21 30 -23 13 -41 -23 -25 0 -25 25 0 42 42 81 52 81
22 0 -11 5 -23 10 -26 6 -4 9 -19 8 -33 -2 -21 2 -28 20 -30 15 -2 22 2 22 14
0 13 3 14 15 4 13 -11 14 -8 9 21 -3 19 -10 46 -16 60 -5 15 -8 42 -6 59 2 20
-2 35 -9 37 -7 3 -13 -2 -13 -11 0 -9 -4 -16 -10 -16 -16 0 -12 18 10 40 23
23 27 38 5 20 -22 -19 -37 -2 -17 21 9 11 17 23 17 27 0 4 4 13 8 20 6 8 2 12
-11 12 -16 0 -19 -5 -15 -23 4 -19 1 -17 -22 11 -15 18 -40 39 -56 47 -16 9
-29 24 -29 34 0 10 -11 30 -25 45 -22 24 -34 56 -20 56 2 0 15 -12 29 -27 32
-34 55 -39 49 -9 -4 20 -4 21 9 1 7 -11 28 -35 46 -53 17 -19 32 -38 32 -43 0
-5 4 -9 9 -9 4 0 11 17 14 37 5 30 31 154 50 240 2 7 6 16 10 19 4 4 7 16 7
27 0 10 7 34 16 52 12 26 13 38 4 54 -9 18 -8 21 10 21 12 0 18 5 15 10 -4 6
-11 8 -16 5 -5 -4 -9 -2 -9 3 0 6 7 12 15 16 8 3 15 15 15 26 0 11 6 20 13 20
13 0 67 79 67 99 0 6 7 11 16 11 15 0 53 37 54 52 0 10 -26 3 -44 -11 -9 -7
-16 -10 -16 -5 0 5 -6 1 -13 -8 -12 -15 -14 -15 -25 2 -9 14 -8 21 3 30 28 23
15 30 -47 25 -39 -3 -67 -11 -74 -20 -8 -11 -14 -11 -22 -3 -16 16 -28 2 -13
-16 14 -16 65 -16 83 2 17 17 31 15 24 -4 -4 -12 -2 -15 9 -11 15 6 45 -17 45
-33 0 -33 -120 -49 -154 -21 -23 19 -83 30 -95 18 -8 -8 -11 -3 -11 16 0 17 5
27 15 27 8 0 15 4 15 9 0 12 -29 41 -41 41 -5 0 -18 8 -28 18 -34 30 -50 42
-57 42 -4 0 -15 9 -24 20 -10 12 -20 17 -23 13z m183 -203 c0 -5 -4 -10 -10
-10 -5 0 -10 5 -10 10 0 6 5 10 10 10 6 0 10 -4 10 -10z m120 -40 c0 -13 -11
-13 -30 0 -12 8 -11 10 8 10 12 0 22 -4 22 -10z m40 -10 c0 -5 -7 -7 -15 -4
-8 4 -15 8 -15 10 0 2 7 4 15 4 8 0 15 -4 15 -10z m-70 -30 c0 -5 -4 -12 -10
-15 -5 -3 -10 -4 -10 -1 0 2 -3 12 -6 20 -5 12 -2 15 10 10 9 -3 16 -10 16
-14z m13 -179 c-9 -12 -23 18 -16 35 6 17 8 17 13 -6 4 -14 5 -27 3 -29z
m-248 -1 c3 -5 1 -10 -4 -10 -6 0 -11 5 -11 10 0 6 2 10 4 10 3 0 8 -4 11 -10z
m140 -20 c3 -5 2 -10 -4 -10 -5 0 -13 5 -16 10 -3 6 -2 10 4 10 5 0 13 -4 16
-10z m-63 -24 c12 -17 9 -26 -5 -26 -17 0 -49 34 -41 43 8 7 37 -3 46 -17z
m-76 -7 c19 -22 19 -22 -3 -8 -13 8 -23 17 -23 21 0 12 6 9 26 -13z m124 -429
c0 -10 -6 -23 -13 -29 -11 -8 -13 -6 -13 12 1 17 -4 21 -21 20 -13 -2 -23 1
-23 5 0 15 10 19 40 14 20 -3 30 -10 30 -22z m50 -184 c0 -8 -4 -18 -10 -21
-5 -3 -10 3 -10 14 0 12 5 21 10 21 6 0 10 -6 10 -14z"/>
<path d="M3900 1099 c0 -5 5 -7 10 -4 6 3 10 8 10 11 0 2 -4 4 -10 4 -5 0 -10
-5 -10 -11z"/>
<path d="M430 1080 c0 -5 5 -10 10 -10 6 0 10 5 10 10 0 6 -4 10 -10 10 -5 0
-10 -4 -10 -10z"/>
<path d="M3790 1064 c0 -14 3 -14 15 -4 8 7 15 14 15 16 0 2 -7 4 -15 4 -8 0
-15 -7 -15 -16z"/>
<path d="M4205 1060 c3 -5 8 -10 11 -10 2 0 4 5 4 10 0 6 -5 10 -11 10 -5 0
-7 -4 -4 -10z"/>
<path d="M4480 1060 c0 -5 5 -10 11 -10 5 0 7 5 4 10 -3 6 -8 10 -11 10 -2 0
-4 -4 -4 -10z"/>
<path d="M3890 1023 c0 -5 7 -16 15 -27 14 -18 45 -16 45 3 0 6 -6 8 -14 5 -7
-3 -16 2 -19 10 -6 16 -27 22 -27 9z"/>
<path d="M4602 980 c19 -26 38 -39 38 -25 0 6 -50 55 -56 55 -2 0 5 -13 18
-30z"/>
<path d="M510 960 c0 -5 5 -10 10 -10 6 0 10 5 10 10 0 6 -4 10 -10 10 -5 0
-10 -4 -10 -10z"/>
<path d="M4040 950 c0 -5 5 -10 10 -10 6 0 10 5 10 10 0 6 -4 10 -10 10 -5 0
-10 -4 -10 -10z"/>
<path d="M4345 910 c-3 -5 1 -10 9 -10 9 0 16 5 16 10 0 6 -4 10 -9 10 -6 0
-13 -4 -16 -10z"/>
<path d="M4500 880 c0 -5 5 -10 10 -10 6 0 10 5 10 10 0 6 -4 10 -10 10 -5 0
-10 -4 -10 -10z"/>
<path d="M1699 832 c-9 -9 -24 -22 -34 -27 -10 -6 -16 -19 -14 -29 4 -17 9
-14 42 17 34 34 47 58 30 56 -5 0 -15 -8 -24 -17z"/>
<path d="M1880 830 c0 -5 7 -10 16 -10 8 0 12 5 9 10 -3 6 -10 10 -16 10 -5 0
-9 -4 -9 -10z"/>
<path d="M4526 824 c-5 -13 -9 -15 -18 -6 -7 7 -23 12 -37 12 -20 -1 -22 -3
-11 -9 34 -19 68 -21 74 -4 4 9 5 18 2 20 -2 2 -6 -4 -10 -13z"/>
<path d="M1547 823 c-12 -20 -16 -69 -8 -83 13 -19 17 -13 25 37 5 37 -5 66
-17 46z"/>
<path d="M2085 810 c-11 -18 5 -31 26 -20 11 6 17 15 14 21 -8 12 -32 12 -40
-1z"/>
<path d="M1980 786 c0 -9 7 -16 16 -16 9 0 14 5 12 12 -6 18 -28 21 -28 4z"/>
<path d="M2126 781 c-4 -7 -5 -15 -2 -18 9 -9 19 4 14 18 -4 11 -6 11 -12 0z"/>
<path d="M1957 740 c3 -11 9 -17 14 -14 14 8 10 34 -5 34 -9 0 -12 -7 -9 -20z"/>
<path d="M4450 741 c0 -5 5 -13 10 -16 6 -3 10 -2 10 4 0 5 -4 13 -10 16 -5 3
-10 2 -10 -4z"/>
<path d="M4525 739 c-10 -15 3 -25 16 -12 7 7 7 13 1 17 -6 3 -14 1 -17 -5z"/>
<path d="M1700 726 c0 -9 5 -16 10 -16 6 0 10 4 10 9 0 6 -4 13 -10 16 -5 3
-10 -1 -10 -9z"/>
<path d="M509 697 c-24 -18 -41 -56 -43 -93 -2 -46 23 -42 29 5 4 29 17 61 25
61 4 0 10 9 13 20 6 23 -1 25 -24 7z"/>
<path d="M1855 700 c-3 -5 -1 -10 4 -10 6 0 11 5 11 10 0 6 -2 10 -4 10 -3 0
-8 -4 -11 -10z"/>
<path d="M4528 704 c-4 -3 -4 -13 -1 -22 5 -11 2 -14 -11 -9 -12 5 -20 -1 -28
-18 -6 -14 -17 -25 -25 -25 -7 0 -13 -5 -13 -12 0 -6 3 -8 7 -5 3 4 12 -1 19
-11 13 -16 13 -16 14 1 0 9 6 17 14 17 8 0 16 7 20 15 3 8 13 15 21 15 12 0
15 6 10 23 -9 27 -19 39 -27 31z"/>
<path d="M4435 690 c-3 -5 -2 -10 4 -10 5 0 13 5 16 10 3 6 2 10 -4 10 -5 0
-13 -4 -16 -10z"/>
<path d="M4470 683 c0 -6 -8 -17 -17 -22 -10 -6 -13 -11 -6 -11 7 0 25 11 40
24 27 24 27 25 6 23 -13 -1 -23 -7 -23 -14z"/>
<path d="M1840 655 c-18 -21 -3 -32 16 -13 10 9 12 18 6 22 -5 3 -15 -1 -22
-9z"/>
<path d="M4407 653 c-3 -5 -1 -17 4 -28 7 -17 8 -17 8 8 1 27 -4 34 -12 20z"/>
<path d="M4570 615 c0 -8 -5 -15 -11 -15 -5 0 -7 5 -4 10 3 6 1 10 -5 10 -7 0
-10 -6 -7 -12 2 -7 0 -23 -4 -35 -9 -25 5 -32 18 -9 4 8 22 22 38 30 20 10 24
16 13 16 -10 0 -18 5 -18 10 0 6 -4 10 -10 10 -5 0 -10 -7 -10 -15z"/>
<path d="M1755 600 c-3 -5 -1 -10 4 -10 6 0 11 5 11 10 0 6 -2 10 -4 10 -3 0
-8 -4 -11 -10z"/>
<path d="M1859 594 c-1 -5 -1 -12 -1 -15 1 -3 -11 -4 -26 -1 -24 5 -26 4 -13
-11 7 -10 20 -17 28 -17 10 0 12 -6 8 -19 -3 -11 -1 -22 5 -26 5 -3 10 -17 10
-31 0 -31 13 -31 33 0 14 21 14 26 2 36 -9 7 -13 21 -9 34 3 14 -2 28 -15 40
-12 11 -22 15 -22 10z"/>
<path d="M4440 584 c0 -8 5 -12 10 -9 6 3 10 10 10 16 0 5 -4 9 -10 9 -5 0
-10 -7 -10 -16z"/>
<path d="M0 571 c0 -5 7 -12 16 -15 24 -9 28 -7 14 9 -14 17 -30 20 -30 6z"/>
<path d="M4464 569 c-3 -5 2 -9 10 -9 12 0 14 -8 11 -32 l-5 -33 10 33 c6 17
15 32 20 32 6 0 10 4 10 9 0 5 -11 9 -25 9 -14 0 -28 -4 -31 -9z"/>
<path d="M4605 558 c-11 -35 -10 -53 2 -51 7 2 28 -4 47 -12 31 -13 36 -13 36
-1 0 8 -15 19 -34 26 -28 9 -32 14 -28 35 6 31 -13 33 -23 3z"/>
<path d="M1654 523 c1 -21 -1 -53 -5 -70 -5 -25 -3 -33 8 -33 8 0 11 -5 8 -10
-4 -6 -11 -8 -16 -5 -5 4 -9 1 -9 -4 0 -6 -1 -14 -2 -18 -1 -5 -5 -23 -9 -40
-5 -24 -3 -33 6 -33 7 0 15 -5 17 -10 2 -6 13 -2 24 9 15 13 25 16 32 9 27
-27 67 53 64 129 l-1 54 42 19 c23 11 33 19 22 18 -11 -2 -26 1 -34 6 -8 5
-44 11 -81 13 l-67 4 1 -38z m26 -148 c0 -9 -6 -12 -15 -9 -8 4 -15 10 -15 15
0 5 7 9 15 9 8 0 15 -7 15 -15z m-20 -35 c0 -5 -2 -10 -4 -10 -3 0 -8 5 -11
10 -3 6 -1 10 4 10 6 0 11 -4 11 -10z"/>
<path d="M1966 544 c-9 -22 -8 -24 9 -24 8 0 15 9 15 20 0 24 -15 27 -24 4z"/>
<path d="M4440 525 c-7 -9 -11 -18 -8 -20 3 -3 11 1 18 10 7 9 11 18 8 20 -3
3 -11 -1 -18 -10z"/>
<path d="M4530 521 c0 -25 6 -27 13 -6 4 8 2 17 -3 20 -6 4 -10 -3 -10 -14z"/>
<path d="M2010 521 c0 -6 5 -13 10 -16 6 -3 10 1 10 9 0 9 -4 16 -10 16 -5 0
-10 -4 -10 -9z"/>
<path d="M4330 526 c0 -2 7 -20 15 -39 10 -25 20 -35 30 -31 21 8 19 13 -15
46 -16 15 -30 26 -30 24z"/>
<path d="M1940 500 c0 -5 5 -10 10 -10 6 0 10 5 10 10 0 6 -4 10 -10 10 -5 0
-10 -4 -10 -10z"/>
<path d="M4439 441 c-37 -33 -40 -39 -19 -34 43 11 65 28 67 51 2 12 1 22 -1
22 -2 0 -23 -18 -47 -39z"/>
<path d="M4544 447 c-6 -10 -28 -24 -50 -32 -22 -7 -41 -21 -43 -31 -2 -10
-13 -26 -25 -36 -11 -11 -14 -17 -6 -14 8 3 23 9 33 12 10 4 16 13 13 21 -6
15 48 43 84 43 31 0 24 -13 -30 -54 -27 -21 -50 -41 -50 -44 0 -3 3 -2 6 1 4
4 19 -2 34 -13 37 -26 47 -25 54 6 7 26 28 54 41 54 4 0 5 -9 2 -21 -5 -18 -3
-18 11 -7 38 29 74 100 49 95 -7 -1 -11 4 -9 11 1 6 -2 12 -8 12 -5 0 -10 -4
-10 -10 0 -5 -5 -10 -11 -10 -6 0 -9 7 -5 15 3 9 0 15 -10 15 -8 0 -17 -7 -20
-15 -8 -21 -32 -19 -36 3 -3 16 -4 16 -14 -1z m96 -47 c0 -5 -5 -10 -11 -10
-5 0 -7 5 -4 10 3 6 8 10 11 10 2 0 4 -4 4 -10z"/>
<path d="M1361 414 c0 -11 3 -14 6 -6 3 7 2 16 -1 19 -3 4 -6 -2 -5 -13z"/>
<path d="M130 398 c0 -8 11 -25 25 -38 14 -13 25 -20 25 -16 0 5 -11 21 -25
38 -14 16 -25 23 -25 16z"/>
<path d="M1966 396 c3 -9 11 -16 16 -16 13 0 5 23 -10 28 -7 2 -10 -2 -6 -12z"/>
<path d="M2426 395 c-3 -8 -18 -20 -33 -26 l-27 -10 25 -17 c13 -9 24 -23 24
-31 0 -8 5 -16 10 -18 12 -4 32 73 27 100 -4 21 -18 22 -26 2z"/>
<path d="M1925 320 c-8 -13 4 -32 16 -25 12 8 12 35 0 35 -6 0 -13 -4 -16 -10z"/>
<path d="M1788 312 c-24 -5 -23 -24 3 -41 18 -11 23 -11 30 1 5 7 9 16 9 19 0
13 -25 25 -42 21z"/>
<path d="M4398 303 c7 -3 16 -2 19 1 4 3 -2 6 -13 5 -11 0 -14 -3 -6 -6z"/>
<path d="M1683 284 c-7 -18 53 -78 68 -69 12 8 12 35 -1 35 -6 0 -15 11 -20
25 -11 28 -37 33 -47 9z"/>
<path d="M371 263 c-1 -6 -4 -20 -7 -30 -5 -17 -5 -17 6 0 6 10 9 23 6 30 -3
9 -5 9 -5 0z"/>
<path d="M2000 253 c0 -6 -3 -18 -6 -27 -3 -9 -1 -16 5 -16 17 0 25 30 12 43
-8 8 -11 8 -11 0z"/>
<path d="M2460 205 c1 -26 2 -28 11 -12 8 14 8 22 0 30 -8 8 -11 3 -11 -18z"/>
<path d="M1630 200 c0 -5 5 -10 10 -10 6 0 10 5 10 10 0 6 -4 10 -10 10 -5 0
-10 -4 -10 -10z"/>
<path d="M2390 171 c-22 -6 -23 -8 -7 -14 10 -4 27 -2 38 3 35 19 19 25 -31
11z"/>
<path d="M4610 161 c0 -6 9 -9 20 -8 11 1 20 5 20 9 0 4 -9 8 -20 8 -11 0 -20
-4 -20 -9z"/>
<path d="M2250 149 c0 -5 5 -7 10 -4 6 3 10 8 10 11 0 2 -4 4 -10 4 -5 0 -10
-5 -10 -11z"/>
<path d="M2430 130 c-12 -16 -31 -32 -41 -35 -11 -4 -22 -18 -25 -33 -3 -15
-8 -35 -11 -44 -3 -13 1 -18 16 -18 22 0 41 27 34 48 -3 8 13 32 36 53 23 22
39 44 36 50 -10 15 -21 10 -45 -21z"/>
<path d="M1 114 c0 -11 3 -14 6 -6 3 7 2 16 -1 19 -3 4 -6 -2 -5 -13z"/>
<path d="M2697 68 c-21 -6 -41 -17 -44 -25 -3 -8 -17 -19 -32 -26 -25 -10 -25
-11 -4 -14 24 -5 93 24 93 38 0 5 14 9 31 9 27 0 30 2 19 15 -7 8 -15 15 -19
14 -3 -1 -23 -6 -44 -11z"/>
<path d="M1630 47 c0 -7 8 -17 19 -24 24 -15 70 12 51 31 -9 8 -14 8 -17 -1
-6 -15 -33 -17 -33 -3 0 6 -4 10 -10 10 -5 0 -10 -6 -10 -13z"/>
<path d="M2303 30 c-2 -23 2 -30 16 -30 10 0 21 9 24 20 3 13 0 20 -9 20 -8 0
-14 5 -14 10 0 25 -15 7 -17 -20z"/>
<path d="M90 40 c0 -5 5 -10 11 -10 5 0 7 5 4 10 -3 6 -8 10 -11 10 -2 0 -4
-4 -4 -10z"/>
<path d="M135 30 c3 -5 11 -10 16 -10 6 0 7 5 4 10 -3 6 -11 10 -16 10 -6 0
-7 -4 -4 -10z"/>
<path d="M2020 30 c0 -5 7 -10 15 -10 8 0 15 5 15 10 0 6 -7 10 -15 10 -8 0
-15 -4 -15 -10z"/>
<path d="M2770 30 c0 -13 18 -22 24 -11 3 5 -1 11 -9 15 -8 3 -15 1 -15 -4z"/>
<path d="M3712 20 c-56 -13 -48 -20 24 -20 63 1 67 2 50 15 -22 16 -25 17 -74
5z"/>
<path d="M20 10 c-17 -5 4 -8 60 -8 59 0 76 3 55 8 -39 10 -84 10 -115 0z"/>
</g>
</svg>
