<?xml version="1.0" standalone="no"?>
<!DOCTYPE svg PUBLIC "-//W3C//DTD SVG 20010904//EN"
 "http://www.w3.org/TR/2001/REC-SVG-20010904/DTD/svg10.dtd">
<svg version="1.0" xmlns="http://www.w3.org/2000/svg"
 width="1597.000000pt" height="1600.000000pt" viewBox="0 0 1597.000000 1600.000000"
 preserveAspectRatio="xMidYMid meet">

<g transform="translate(0.000000,1600.000000) scale(0.100000,-0.100000)"
fill="#000000" stroke="none">
<path d="M7760 15334 c-167 -6 -511 -33 -685 -55 -1492 -188 -2852 -810 -3994
-1828 -148 -131 -454 -441 -590 -596 -963 -1098 -1571 -2425 -1765 -3851 -54
-394 -61 -508 -60 -1004 0 -503 11 -679 69 -1066 162 -1090 547 -2089 1155
-2999 1180 -1767 3069 -2940 5165 -3204 336 -43 535 -55 925 -55 635 0 1145
59 1725 199 1665 401 3143 1380 4171 2765 410 551 767 1214 995 1846 330 914
464 1766 437 2767 -57 2107 -1065 4127 -2728 5462 -850 683 -1820 1162 -2860
1414 -395 95 -772 154 -1190 185 -204 16 -590 25 -770 20z m353 -1462 c29 -27
43 -72 58 -180 19 -140 -16 -233 -101 -270 -28 -13 -87 -17 -296 -20 l-262 -4
-7 119 c-12 187 -11 285 4 311 24 44 73 56 251 63 274 11 324 8 353 -19z m512
-12 c110 -10 277 -26 370 -35 238 -22 235 -21 235 -49 0 -70 -104 -336 -158
-404 l-18 -23 -179 16 c-276 23 -407 35 -442 41 l-33 5 0 234 c0 181 3 235 13
235 6 0 102 -9 212 -20z m-1382 -232 c3 -128 4 -234 2 -237 -2 -2 -59 -7 -127
-12 -68 -4 -220 -15 -338 -24 -118 -8 -234 -15 -257 -15 l-43 0 0 225 c0 207
1 225 18 226 9 0 161 15 337 33 176 19 338 34 361 35 l41 1 6 -232z m-1013
-113 l0 -225 -22 -5 c-13 -3 -126 -18 -253 -35 -431 -55 -470 -61 -529 -70
-33 -5 -62 -7 -65 -4 -8 7 25 97 67 184 106 221 395 376 705 379 l97 1 0 -225z
m3411 209 c147 -25 472 -115 518 -144 11 -6 -1 -44 -59 -187 -95 -233 -112
-273 -115 -273 -15 0 -621 192 -628 199 -9 9 97 349 125 404 11 21 38 22 159
1z m879 -291 c186 -72 459 -240 548 -336 l24 -25 -141 -196 c-78 -107 -146
-198 -152 -202 -6 -3 -77 38 -157 92 -175 116 -219 143 -334 201 -49 24 -88
49 -88 55 0 10 159 386 182 431 10 20 17 19 118 -20z m-1880 -292 c1415 -113
2161 -544 2640 -1526 103 -212 256 -601 276 -701 6 -30 5 -31 -58 -53 -178
-65 -415 -162 -813 -336 -104 -45 -336 -141 -515 -213 -179 -71 -424 -173
-545 -227 -344 -152 -507 -220 -619 -258 -36 -12 -66 -25 -67 -30 -3 -19 25
-277 32 -288 5 -9 48 2 171 46 211 75 613 234 948 375 146 62 301 127 345 145
44 18 136 56 205 85 69 28 220 90 335 136 275 111 394 169 492 242 99 74 171
161 226 272 39 81 42 90 45 192 3 83 -1 129 -18 208 -37 175 -126 404 -219
564 l-34 60 61 58 c73 68 186 154 259 196 46 27 53 29 57 14 87 -297 141 -512
166 -662 30 -168 25 -450 -10 -575 -62 -227 -204 -425 -403 -563 -82 -57 -71
-52 -487 -222 -162 -66 -315 -129 -340 -140 -25 -11 -200 -83 -390 -161 -190
-78 -383 -157 -430 -176 -264 -109 -563 -227 -690 -273 -249 -91 -270 -105
-373 -265 -25 -39 -66 -90 -90 -112 -136 -125 -385 -181 -593 -134 -122 27
-127 26 -524 -137 -266 -109 -473 -194 -645 -262 -93 -38 -273 -112 -400 -165
-126 -54 -310 -128 -408 -165 -98 -37 -180 -70 -183 -72 -2 -3 22 -72 55 -154
33 -82 67 -175 76 -208 24 -82 17 -176 -17 -246 -30 -60 -115 -153 -185 -201
-196 -135 -622 -160 -847 -49 -76 38 -161 122 -200 197 -69 136 -94 336 -76
598 11 158 29 294 95 728 36 243 40 223 -57 300 -203 158 -281 277 -314 477
-18 109 -18 191 1 332 40 308 173 506 506 756 l56 42 22 287 c12 159 31 403
41 543 11 140 28 374 39 520 11 146 30 393 41 550 11 157 24 312 28 345 7 60
7 60 42 63 66 5 385 43 525 62 77 11 266 38 420 60 545 77 783 103 1095 120
107 6 218 12 245 14 100 7 874 -3 1005 -13z m2712 -285 c69 -53 122 -122 353
-461 12 -17 -6 -37 -134 -152 -51 -46 -125 -102 -164 -125 l-70 -42 -70 74
c-78 84 -235 269 -256 304 -13 21 -5 35 134 229 82 114 151 207 155 207 4 0
27 -15 52 -34z m-911 -6091 c24 -9 57 -28 72 -43 33 -31 67 -92 67 -120 0 -11
9 -26 20 -33 20 -14 20 -15 -9 -107 -16 -51 -34 -132 -41 -180 -6 -48 -23
-136 -37 -196 -22 -95 -25 -124 -20 -235 4 -112 8 -132 31 -176 34 -64 44 -66
291 -58 216 7 223 5 211 -62 l-7 -36 -405 3 c-316 2 -406 6 -413 16 -13 22 6
122 32 160 30 46 62 203 47 232 -5 10 -20 58 -31 107 -12 48 -25 96 -31 106
-8 16 -21 115 -33 255 -2 23 -10 55 -18 72 -33 65 14 224 79 266 33 22 93 43
125 44 15 0 46 -7 70 -15z m-6613 -64 c66 -34 122 -113 122 -171 0 -12 5 -18
10 -15 23 14 21 -31 -3 -113 -15 -48 -31 -123 -37 -167 -14 -104 -58 -288 -82
-344 -18 -42 -18 -44 2 -111 11 -37 20 -75 20 -85 0 -10 9 -32 20 -49 10 -18
26 -59 35 -92 14 -54 14 -60 -1 -71 -34 -25 -303 -28 -342 -4 -18 11 1 123 26
159 11 15 29 67 40 116 20 87 20 91 2 135 -9 25 -20 68 -24 94 -4 26 -14 64
-23 85 -9 20 -20 73 -24 117 -16 149 -26 211 -37 232 -15 27 -1 147 21 189 18
35 61 76 102 97 42 23 127 21 173 -2z m4601 -14 c48 -32 77 -74 92 -134 6 -23
16 -41 23 -40 17 3 10 -48 -19 -138 -14 -44 -25 -93 -25 -109 0 -49 -48 -270
-76 -346 l-26 -73 22 -81 c12 -45 32 -106 45 -136 13 -30 27 -76 30 -102 6
-45 5 -48 -22 -55 -37 -10 -271 -10 -306 0 -28 8 -29 9 -23 64 3 32 16 73 30
97 13 22 32 79 41 126 18 85 18 86 -3 148 -12 34 -22 74 -22 88 0 14 -9 46
-19 72 -12 29 -26 101 -34 183 -8 75 -21 150 -30 167 -22 44 -2 157 39 214 64
91 191 115 283 55z m-2591 -23 c40 -6 67 -43 58 -80 -6 -24 -93 -147 -509
-719 l-174 -240 326 -5 c179 -3 332 -9 339 -13 18 -12 15 -62 -7 -81 -17 -15
-54 -16 -412 -14 l-394 3 -3 37 c-4 48 23 108 80 178 158 195 578 778 578 802
0 3 -125 5 -277 5 -202 -2 -290 2 -320 11 -41 12 -43 14 -43 53 0 48 18 58
130 68 80 7 573 4 628 -5z m7163 6 c130 -24 245 -114 283 -219 22 -63 15 -73
-54 -69 -39 3 -47 8 -67 38 -57 90 -102 121 -195 134 -106 16 -223 -33 -261
-108 -28 -53 -33 -125 -13 -164 33 -63 76 -84 298 -141 139 -36 179 -55 236
-112 63 -64 87 -120 87 -204 0 -295 -397 -435 -656 -231 -94 74 -154 224 -96
240 56 15 76 8 98 -36 34 -67 116 -142 184 -167 191 -72 387 68 336 240 -27
91 -92 130 -289 173 -140 31 -208 61 -265 119 -160 160 -44 432 214 501 66 18
91 19 160 6z m-9846 -20 c164 -32 287 -156 302 -303 11 -106 -58 -258 -144
-317 -60 -41 -111 -52 -303 -61 -102 -5 -195 -12 -207 -14 l-23 -5 0 -221 0
-222 -37 7 c-21 3 -48 6 -60 6 l-23 0 0 559 0 560 23 16 c19 15 47 16 217 12
107 -3 222 -11 255 -17z m1693 12 c50 -2 52 -3 52 -31 0 -38 -34 -119 -91
-216 -51 -86 -148 -218 -384 -522 -83 -106 -160 -210 -173 -232 l-23 -41 325
0 325 0 14 -27 c8 -16 12 -35 9 -43 -12 -39 -24 -40 -430 -40 l-395 0 7 48 c3
26 21 76 39 110 33 67 58 100 327 452 90 118 195 260 232 315 l68 100 -308 6
c-169 3 -315 9 -324 13 -21 10 -25 80 -5 93 6 4 32 10 57 13 41 4 549 6 678 2z
m2821 -13 c35 -6 88 -21 116 -35 176 -83 241 -322 128 -471 -34 -44 -127 -106
-193 -128 l-50 -16 22 -42 c30 -60 107 -174 209 -308 49 -65 89 -120 89 -123
0 -3 -26 -6 -57 -6 -76 0 -112 23 -160 100 -31 49 -124 182 -235 332 -12 15
-27 17 -135 11 l-123 -6 0 -225 0 -224 -31 6 c-17 3 -45 6 -61 6 l-29 0 3 554
c3 538 4 555 23 576 20 22 22 22 220 15 110 -3 229 -11 264 -16z m4254 5 c94
-24 156 -61 233 -138 94 -94 146 -199 171 -344 16 -95 16 -108 1 -198 -32
-191 -134 -332 -299 -413 -244 -120 -484 -86 -664 94 -112 111 -172 245 -182
400 -11 177 39 311 160 429 149 147 393 219 580 170z m-5053 -43 c0 -48 -1
-50 -37 -63 -28 -10 -103 -13 -295 -11 l-258 1 0 -199 0 -200 265 2 c146 1
267 0 269 -2 3 -2 7 -20 11 -40 13 -68 10 -69 -285 -62 l-260 6 0 -211 0 -212
298 -2 297 -3 3 -30 c2 -16 -4 -39 -12 -50 -14 -19 -26 -20 -363 -20 l-348 0
-3 340 c-2 187 0 445 3 573 l7 232 354 0 354 0 0 -49z m2384 -38 c117 -234
446 -1009 446 -1052 0 -10 -12 -12 -55 -9 -31 3 -60 9 -66 15 -5 5 -27 56 -49
113 -22 58 -51 116 -65 130 l-25 25 -299 3 c-236 2 -300 0 -309 -10 -6 -7 -29
-62 -52 -120 -48 -124 -70 -148 -136 -148 -24 0 -44 4 -44 9 0 5 22 60 49 123
50 114 386 901 414 971 l16 37 65 0 66 0 44 -87z m-3341 -1618 c94 -20 198
-78 261 -145 47 -51 116 -163 116 -189 0 -6 -19 -20 -42 -32 l-42 -21 -20 25
c-12 13 -46 59 -76 101 -84 116 -156 156 -285 156 -233 0 -389 -118 -440 -332
-75 -319 146 -598 456 -576 126 9 211 68 308 212 29 42 56 76 61 76 14 0 90
-31 90 -37 0 -3 -14 -33 -32 -67 -44 -82 -156 -195 -235 -235 -295 -148 -641
-10 -749 300 -33 95 -42 237 -20 337 64 301 351 490 649 427z m3634 -17 c102
-37 178 -95 243 -183 34 -46 80 -126 80 -139 0 -7 -76 -46 -88 -46 -5 0 -31
33 -58 73 -110 164 -177 207 -322 207 -90 0 -191 -22 -241 -52 -55 -32 -119
-98 -151 -153 -48 -84 -63 -154 -58 -274 3 -98 6 -112 40 -183 64 -134 171
-215 318 -239 91 -15 181 0 264 44 60 32 100 77 166 185 17 28 38 52 46 52 19
0 84 -32 84 -42 0 -25 -66 -133 -112 -183 -164 -180 -415 -224 -640 -113 -86
43 -198 155 -238 239 -86 183 -77 400 24 573 74 126 240 236 391 260 62 9 195
-4 252 -26z m2448 0 c187 -62 332 -231 370 -431 20 -105 19 -169 -4 -258 -54
-210 -218 -358 -450 -405 -239 -48 -479 66 -586 276 -75 149 -92 332 -42 463
76 198 252 347 446 377 77 12 194 2 266 -22z m1113 -3 c72 -33 137 -95 168
-160 20 -42 31 -85 21 -85 -1 0 -17 -4 -36 -10 -33 -9 -35 -8 -110 69 -64 67
-84 82 -130 95 -67 20 -95 20 -155 2 -104 -32 -157 -96 -158 -192 -1 -40 5
-63 19 -82 30 -40 114 -78 248 -112 153 -39 191 -54 240 -95 130 -106 133
-305 6 -431 -48 -49 -85 -68 -172 -90 -200 -51 -440 76 -477 253 -12 54 -6 63
44 63 40 0 56 -13 106 -89 62 -93 123 -126 233 -126 70 0 86 4 128 28 156 92
149 276 -12 343 -20 8 -86 26 -148 39 -136 29 -188 51 -247 105 -150 139 -109
367 84 465 72 37 115 45 208 40 62 -3 98 -11 140 -30z m-10258 -27 c36 -64 94
-198 199 -464 80 -204 154 -361 187 -402 l19 -22 125 287 c69 157 161 368 205
467 l80 181 68 -1 c39 0 73 -6 80 -13 9 -9 12 -141 12 -554 l0 -542 -57 -3
-58 -3 -1 348 c-1 191 -4 393 -8 448 l-6 100 -29 -45 c-40 -61 -92 -176 -159
-350 -129 -334 -167 -415 -219 -469 -33 -33 -43 -36 -81 -22 -27 10 -88 142
-217 466 -78 196 -172 396 -195 415 -13 11 -15 -40 -15 -439 l0 -451 -44 0
c-80 0 -76 -26 -76 561 0 463 2 518 16 530 14 11 67 23 126 28 11 1 28 -18 48
-51z m3796 26 c29 -18 32 -48 26 -271 l-5 -193 316 0 317 0 2 243 3 242 35 -3
c20 -2 46 -14 60 -28 l25 -24 -2 -513 c-2 -468 -4 -513 -20 -524 -18 -14 -81
-28 -89 -21 -2 3 -7 115 -11 250 l-6 245 -156 6 c-86 4 -227 7 -313 7 l-158 0
0 -239 c0 -183 -3 -241 -13 -249 -7 -6 -31 -14 -53 -18 l-41 -6 -6 263 c-9
333 -9 844 -1 852 9 9 65 -3 90 -19z m1626 -113 c107 -216 369 -825 403 -938
l13 -43 -33 0 c-79 0 -100 27 -166 213 l-24 67 -306 0 -306 0 -35 -77 c-20
-43 -44 -100 -54 -127 -19 -53 -54 -76 -114 -76 -28 0 -30 2 -24 28 11 45 77
207 153 374 39 87 105 241 146 343 82 202 113 268 157 333 29 41 31 43 76 40
l47 -3 67 -134z m1961 111 c15 -14 17 -38 17 -239 l0 -223 315 0 315 0 0 241
0 240 42 -3 c30 -2 46 -10 59 -28 17 -23 18 -60 20 -517 2 -451 1 -493 -15
-518 -18 -27 -53 -45 -87 -45 -18 0 -19 9 -19 249 0 218 -2 250 -16 255 -9 3
-150 6 -315 6 l-299 0 0 -232 c0 -128 -4 -238 -8 -244 -12 -19 -49 -34 -81
-34 l-31 0 0 553 c0 305 2 556 5 558 9 10 81 -4 98 -19z m-5974 1 l24 -16 -7
-296 c-8 -392 6 -503 79 -588 46 -54 107 -83 193 -90 190 -16 294 75 322 282
6 46 9 207 8 375 -2 162 0 307 5 323 6 22 13 27 38 27 18 0 39 -9 53 -23 23
-23 23 -25 24 -293 1 -309 -9 -452 -39 -542 -58 -174 -180 -256 -384 -256
-139 0 -256 49 -324 136 -33 41 -68 122 -79 178 -6 30 -14 215 -18 411 l-7
356 24 16 c30 21 58 21 88 0z"/>
<path d="M7705 9276 c-71 -29 -224 -91 -340 -138 -259 -106 -402 -164 -547
-224 -139 -57 -251 -102 -343 -137 -389 -148 -471 -193 -535 -293 -41 -65 -67
-234 -37 -234 8 0 85 30 173 66 87 36 218 89 289 118 137 57 1223 505 1410
583 61 25 114 49 119 54 12 11 -35 259 -49 259 -5 -1 -68 -25 -140 -54z"/>
<path d="M2790 6312 l0 -229 31 -7 c17 -3 73 -6 123 -6 203 0 310 40 357 133
73 141 24 259 -128 308 -54 17 -101 23 -225 27 l-158 4 0 -230z"/>
<path d="M7388 6542 l-108 -3 0 -223 0 -223 115 -7 c125 -7 189 -2 279 22 128
34 192 151 156 284 -33 119 -151 159 -442 150z"/>
<path d="M11612 6530 c-111 -40 -205 -118 -251 -208 -93 -183 -56 -438 85
-579 169 -170 464 -172 631 -5 130 130 167 347 93 545 -42 113 -140 204 -264
247 -79 27 -219 27 -294 0z"/>
<path d="M9117 6443 c-9 -21 -61 -141 -116 -268 -56 -126 -101 -235 -101 -241
0 -8 73 -13 248 -16 136 -3 248 -4 250 -3 2 2 -256 556 -263 563 -1 2 -10 -14
-18 -35z"/>
<path d="M11694 4831 c-215 -61 -341 -268 -306 -497 25 -157 115 -285 250
-351 73 -37 80 -38 176 -37 119 1 187 23 266 85 103 81 159 189 167 324 10
143 -35 270 -126 364 -118 121 -263 159 -427 112z"/>
<path d="M8090 4685 c-54 -112 -184 -435 -177 -441 2 -3 112 -3 245 -2 l241 3
-121 273 c-67 149 -125 272 -129 272 -4 0 -30 -47 -59 -105z"/>
</g>
</svg>
