<?xml version="1.0" standalone="no"?>
<!DOCTYPE svg PUBLIC "-//W3C//DTD SVG 20010904//EN"
 "http://www.w3.org/TR/2001/REC-SVG-20010904/DTD/svg10.dtd">
<svg version="1.0" xmlns="http://www.w3.org/2000/svg"
 width="1597.000000pt" height="1600.000000pt" viewBox="0 0 1597.000000 1600.000000"
 preserveAspectRatio="xMidYMid meet">

<g transform="translate(0.000000,1600.000000) scale(0.100000,-0.100000)"
fill="#000000" stroke="none">
<path d="M7710 15334 c-188 -9 -511 -38 -675 -59 -1457 -193 -2767 -786 -3890
-1764 -156 -136 -532 -512 -666 -667 -962 -1107 -1559 -2412 -1753 -3829 -54
-393 -61 -507 -61 -1015 0 -498 7 -611 56 -975 79 -587 227 -1159 442 -1705
273 -695 657 -1354 1126 -1930 322 -397 747 -818 1141 -1131 980 -779 2139
-1293 3370 -1493 413 -67 720 -91 1180 -91 525 0 920 36 1390 126 1121 215
2170 687 3075 1383 1089 837 1913 1944 2400 3227 635 1671 627 3566 -20 5239
-413 1065 -1072 2020 -1934 2802 -860 779 -1918 1351 -3046 1646 -431 113
-833 180 -1295 217 -189 15 -688 26 -840 19z m392 -1455 c40 -22 68 -126 68
-259 0 -99 -26 -156 -86 -186 -38 -19 -66 -21 -300 -28 -142 -3 -261 -3 -265
1 -13 13 -23 385 -11 414 20 50 67 62 282 70 206 7 282 4 312 -12z m593 -29
c116 -11 280 -27 365 -35 85 -8 159 -15 163 -15 24 0 -32 -190 -94 -315 -73
-149 -48 -137 -240 -119 -400 37 -472 44 -475 46 -1 2 -5 108 -9 237 l-8 234
44 -7 c24 -3 139 -15 254 -26z m-1455 -224 l0 -234 -72 -6 c-135 -11 -643 -46
-665 -46 l-23 0 0 223 0 223 353 36 c193 20 364 36 380 37 l27 1 0 -234z
m-1010 -110 l0 -224 -32 -6 c-18 -3 -87 -12 -153 -21 -66 -9 -223 -29 -350
-46 -293 -39 -335 -43 -335 -36 0 4 11 35 24 70 74 198 161 296 341 385 137
68 264 98 423 101 l82 1 0 -224z m3490 189 c103 -21 434 -115 446 -127 4 -4
-50 -140 -148 -375 -16 -40 -35 -73 -41 -73 -18 0 -611 182 -620 190 -6 5 61
221 127 406 6 15 97 7 236 -21z m752 -256 c219 -86 411 -196 566 -327 l52 -44
-47 -66 c-93 -133 -246 -342 -249 -342 -1 0 -85 54 -186 120 -101 67 -229 144
-285 173 -57 29 -103 55 -103 59 0 4 38 95 85 202 47 107 90 207 95 221 5 14
12 25 14 25 3 0 29 -9 58 -21z m-1813 -314 c1013 -80 1657 -325 2133 -811 292
-299 527 -717 719 -1282 27 -78 49 -146 49 -150 0 -4 -24 -15 -52 -25 -125
-43 -460 -181 -808 -332 -135 -59 -353 -149 -484 -201 -289 -115 -470 -191
-767 -322 -226 -100 -398 -170 -477 -193 -43 -12 -43 -12 -37 -53 2 -23 10
-86 15 -141 16 -149 2 -140 143 -90 258 91 517 192 872 340 88 37 185 77 215
90 30 12 180 75 333 139 153 64 368 152 477 196 214 85 374 161 445 210 126
86 235 222 284 349 48 128 27 331 -59 571 -41 117 -136 322 -171 372 l-23 31
50 45 c157 141 310 245 325 221 5 -8 9 -19 9 -25 0 -5 25 -98 55 -205 31 -107
70 -261 87 -344 30 -139 32 -164 32 -355 1 -194 -1 -210 -27 -304 -31 -112
-87 -230 -151 -320 -81 -114 -253 -259 -367 -310 -45 -20 -523 -217 -1789
-736 -91 -38 -264 -105 -385 -150 -121 -45 -235 -90 -255 -100 -49 -25 -99
-80 -164 -182 -65 -101 -112 -144 -201 -187 -122 -58 -198 -75 -325 -74 -77 0
-131 6 -165 17 -27 8 -62 16 -76 16 -45 0 -152 -38 -418 -147 -141 -58 -393
-161 -561 -228 -168 -68 -354 -144 -415 -170 -205 -87 -570 -232 -627 -251
-32 -10 -58 -22 -58 -27 0 -5 24 -71 54 -146 83 -211 89 -229 90 -316 1 -109
-28 -172 -126 -270 -125 -124 -282 -182 -523 -192 -214 -8 -398 40 -504 133
-191 166 -229 520 -126 1174 35 223 76 513 73 515 -37 24 -213 173 -241 204
-157 174 -205 403 -152 726 41 248 169 439 442 657 l112 90 5 51 c3 29 15 176
26 327 42 577 93 1258 120 1604 11 143 20 272 20 287 0 31 -22 26 225 54 172
19 378 47 640 85 571 83 927 123 1265 140 113 6 230 12 260 14 124 8 779 -5
959 -19z m2741 -333 c54 -55 126 -149 197 -253 l111 -166 -86 -85 c-127 -125
-241 -208 -285 -208 -14 0 -154 154 -276 303 l-64 77 44 63 c24 34 73 103 109
152 37 50 84 116 105 148 21 31 43 57 49 57 6 0 49 -40 96 -88z m-933 -6049
c47 -23 101 -93 109 -143 4 -26 12 -40 25 -43 11 -3 17 -11 15 -19 -30 -86
-58 -202 -70 -285 -9 -56 -25 -139 -36 -183 -16 -64 -21 -109 -19 -211 1 -124
3 -133 32 -190 l30 -59 233 0 c225 0 233 -1 239 -20 4 -11 4 -34 0 -50 l-7
-30 -383 0 c-225 0 -394 4 -409 10 -23 8 -26 15 -26 54 0 29 10 62 29 99 16
31 37 93 46 139 14 73 14 87 2 118 -8 19 -20 62 -27 95 -6 33 -18 78 -26 100
-8 22 -21 99 -28 170 -7 72 -20 146 -28 165 -17 41 -9 141 16 188 55 104 177
145 283 95z m-6641 -52 c53 -24 100 -82 115 -143 7 -27 19 -48 26 -48 19 0 16
-27 -11 -107 -13 -39 -31 -121 -40 -183 -19 -124 -57 -280 -82 -333 -16 -33
-16 -38 5 -105 11 -39 21 -77 21 -85 0 -8 11 -37 25 -64 14 -26 29 -70 34 -96
8 -42 6 -49 -11 -58 -29 -15 -297 -16 -325 -1 -18 10 -20 18 -16 54 2 24 17
70 33 103 16 33 36 94 45 136 14 68 14 79 0 112 -8 20 -22 69 -30 108 -8 39
-20 80 -26 91 -6 11 -15 57 -20 102 -16 158 -26 222 -37 242 -13 25 1 142 22
182 50 95 174 138 272 93z m4582 -2 c51 -25 94 -80 112 -144 7 -25 19 -45 26
-45 19 0 18 -2 -16 -110 -16 -52 -30 -107 -30 -122 0 -50 -40 -243 -71 -340
l-30 -96 22 -84 c12 -45 32 -103 44 -128 12 -25 25 -68 28 -97 l6 -52 -32 -5
c-116 -18 -285 -16 -315 3 -18 11 -2 118 23 155 13 18 30 72 40 122 18 88 18
90 -4 158 -11 37 -21 79 -21 93 0 13 -8 38 -17 56 -9 18 -20 68 -24 112 -14
140 -28 224 -44 254 -8 17 -11 32 -6 35 5 3 10 32 13 63 10 148 163 236 296
172z m-5240 -53 c81 -20 133 -48 187 -97 132 -122 134 -327 4 -472 -75 -84
-117 -97 -359 -108 -107 -6 -201 -12 -207 -14 -10 -3 -13 -57 -13 -224 l0
-220 -52 6 c-29 3 -54 6 -54 7 -1 1 -3 252 -5 559 -4 549 -4 559 16 574 17 13
51 14 220 10 130 -4 222 -11 263 -21z m1695 14 c33 0 37 -3 37 -25 0 -58 -70
-198 -169 -339 -20 -29 -97 -130 -171 -225 -206 -264 -285 -369 -309 -412
l-22 -39 325 0 c318 0 326 0 336 -20 18 -34 8 -73 -20 -81 -14 -4 -197 -7
-407 -8 l-383 -1 0 23 c0 31 28 113 54 157 34 58 62 97 285 389 118 155 241
321 273 369 l59 87 -298 6 c-164 3 -308 9 -320 14 -19 6 -23 15 -23 51 0 24 1
45 3 46 5 4 585 15 647 11 36 -1 82 -3 103 -3z m1019 -20 c13 -16 18 -33 14
-51 -3 -14 -91 -145 -196 -290 -105 -145 -209 -289 -231 -319 -22 -30 -88
-122 -148 -205 l-109 -150 327 -5 c179 -3 332 -9 339 -13 19 -12 14 -62 -8
-82 -18 -16 -44 -17 -416 -10 l-396 8 5 49 c6 52 30 95 104 189 78 99 445 593
493 664 26 39 50 80 54 92 l7 22 -273 -2 c-207 -2 -285 1 -320 12 -47 13 -48
15 -48 52 0 22 1 39 3 39 1 0 20 7 42 15 33 12 102 14 388 12 l349 -2 20 -25z
m1802 4 c77 -15 137 -43 180 -82 92 -86 131 -242 87 -351 -34 -83 -111 -145
-259 -207 -22 -9 -22 -9 23 -89 25 -44 97 -149 160 -232 63 -84 115 -155 115
-158 0 -3 -26 -5 -57 -5 -73 0 -114 24 -151 86 -15 26 -48 76 -74 113 -26 36
-78 108 -115 160 l-66 94 -75 -7 c-41 -3 -97 -6 -124 -6 l-48 0 0 -220 0 -220
-60 0 -61 0 3 556 3 556 25 20 c23 19 34 20 225 13 110 -4 231 -13 269 -21z
m4252 5 c184 -56 318 -200 373 -399 32 -113 36 -193 17 -291 -39 -193 -138
-322 -311 -404 -237 -113 -475 -76 -650 100 -221 221 -245 582 -55 798 149
169 428 257 626 196z m1149 -5 c86 -34 151 -93 186 -169 35 -73 36 -83 5 -91
-52 -13 -90 -1 -111 35 -60 102 -150 149 -265 138 -60 -5 -143 -41 -173 -75
-43 -48 -59 -149 -32 -202 32 -63 70 -80 335 -150 135 -36 210 -91 261 -190
35 -68 33 -167 -6 -243 -71 -141 -240 -222 -407 -196 -128 20 -260 105 -308
199 -27 53 -38 130 -19 130 8 0 30 3 50 6 35 6 37 5 67 -48 65 -116 183 -184
300 -175 209 16 297 224 149 354 -34 30 -42 33 -282 92 -190 47 -281 138 -280
281 1 50 7 77 28 117 74 142 189 212 349 213 71 0 100 -5 153 -26z m-6215 -34
l0 -49 -42 -13 c-31 -9 -113 -12 -295 -11 l-253 2 0 -200 0 -200 266 2 c146 1
267 0 269 -2 4 -5 8 -47 6 -76 l-1 -23 -270 0 -270 0 0 -210 0 -210 295 0 295
0 6 -26 c12 -47 -8 -70 -68 -77 -68 -9 -621 -9 -642 -1 -14 5 -16 48 -16 378
0 205 3 461 7 569 l6 197 354 0 353 0 0 -50z m2367 -7 c77 -141 463 -1036 463
-1074 0 -5 -24 -9 -54 -9 -47 0 -57 4 -75 26 -12 15 -21 31 -21 37 0 27 -65
168 -87 189 -25 23 -26 23 -329 26 l-304 3 -10 -28 c-52 -141 -87 -217 -108
-234 -25 -19 -112 -28 -112 -10 0 5 18 51 41 102 52 120 58 134 107 249 23 52
102 239 178 415 75 176 140 330 145 343 8 20 15 22 71 22 l63 0 32 -57z
m-3333 -1648 c100 -19 187 -65 261 -140 54 -53 125 -164 125 -194 0 -9 -69
-51 -84 -51 -3 0 -32 37 -63 82 -121 173 -156 193 -334 193 -125 -1 -127 -1
-201 -38 -164 -80 -249 -245 -235 -453 12 -169 97 -298 245 -371 74 -37 79
-38 186 -38 102 0 115 2 165 28 65 35 130 100 188 190 23 37 47 67 53 67 13 0
90 -31 90 -37 0 -25 -80 -143 -136 -200 -312 -319 -841 -139 -905 309 -15 104
-2 234 33 319 67 167 225 300 397 334 88 18 125 18 215 0z m3577 0 c136 -29
253 -111 329 -231 66 -105 67 -109 14 -135 -52 -25 -42 -32 -118 81 -91 136
-145 171 -272 178 -262 14 -428 -110 -480 -358 -37 -175 37 -378 169 -469 83
-57 141 -74 253 -75 96 -1 103 0 177 37 82 41 114 73 182 185 21 34 42 62 46
62 19 0 89 -33 89 -41 0 -26 -65 -133 -112 -184 -63 -69 -129 -114 -218 -145
-53 -20 -84 -24 -175 -23 -94 0 -120 4 -176 25 -170 66 -282 181 -340 348 -30
87 -33 277 -5 360 67 201 219 341 421 385 81 18 130 18 216 0z m2433 0 c149
-26 268 -102 356 -227 73 -104 104 -203 104 -338 0 -172 -48 -285 -169 -398
-112 -106 -245 -156 -405 -156 -277 1 -483 183 -536 474 -14 78 -15 105 -6
167 37 237 227 436 457 478 93 17 99 17 199 0z m1118 4 c106 -23 203 -95 244
-184 37 -78 30 -95 -35 -95 -21 0 -41 15 -86 66 -90 102 -174 131 -290 99
-153 -41 -215 -201 -116 -295 39 -37 93 -58 273 -104 158 -41 219 -81 264
-172 24 -49 26 -63 22 -138 -3 -66 -9 -92 -30 -127 -58 -98 -140 -151 -264
-171 -87 -13 -168 1 -261 47 -102 50 -166 130 -186 232 -6 28 -3 32 21 37 53
12 84 -6 120 -68 55 -94 140 -144 248 -145 184 -3 310 192 203 314 -41 46
-100 73 -214 96 -202 41 -276 84 -334 194 -30 56 -30 174 0 230 77 145 248
220 421 184z m-10175 -66 c41 -78 84 -177 158 -368 124 -316 183 -447 223
-487 18 -19 9 -39 343 725 l82 188 75 -3 c75 -3 76 -3 84 -33 5 -16 5 -265 2
-552 l-7 -523 -54 0 -53 0 0 452 c0 446 0 451 -19 434 -34 -31 -97 -165 -196
-417 -116 -294 -164 -394 -209 -438 -29 -28 -39 -32 -65 -26 -27 6 -36 17 -66
82 -40 84 -109 249 -180 428 -59 149 -136 314 -167 357 l-23 33 -5 -450 -5
-450 -41 -3 c-72 -5 -69 -32 -69 557 l0 525 25 13 c14 7 50 13 81 13 l56 0 30
-57z m1401 41 l23 -16 -3 -341 c-4 -416 3 -461 84 -552 55 -64 98 -79 218 -80
89 0 111 3 145 22 48 26 76 55 103 108 44 88 47 114 47 485 0 195 4 363 9 373
11 23 58 22 87 -2 l24 -19 2 -274 c1 -150 -2 -318 -8 -373 -29 -300 -153 -428
-415 -428 -209 0 -349 105 -397 298 -12 47 -16 140 -19 425 l-3 364 25 13 c33
17 51 16 78 -3z m2392 -4 c24 -24 24 -22 20 -267 l-2 -193 311 0 c171 0 314
-1 319 -2 4 -2 8 106 10 240 l2 242 30 0 c16 0 41 -10 56 -24 32 -27 30 20 27
-634 l-3 -423 -35 -15 c-77 -32 -73 -44 -77 230 -2 134 -7 248 -11 253 -5 4
-148 9 -318 11 l-309 3 0 -239 c0 -184 -3 -242 -13 -250 -7 -6 -31 -14 -53
-18 l-41 -6 -6 293 c-4 162 -7 412 -7 557 l0 262 40 0 c27 0 47 -7 60 -20z
m1594 -48 c19 -38 55 -113 79 -168 25 -54 56 -124 70 -154 85 -187 238 -554
272 -652 l24 -68 -37 0 c-75 0 -92 22 -164 217 l-23 63 -307 0 -306 0 -36 -75
c-20 -42 -36 -80 -36 -85 0 -4 -9 -28 -19 -53 -20 -47 -54 -67 -111 -67 -26 0
-27 2 -21 33 12 53 43 129 141 347 50 113 118 271 150 352 69 170 112 264 153
331 29 47 29 47 83 47 l54 0 34 -68z m1988 51 c16 -15 18 -36 18 -239 l0 -223
28 -3 c15 -2 156 -2 315 0 l287 3 0 239 0 240 35 0 c25 0 44 -8 60 -24 l24
-25 0 -398 c-1 -219 2 -419 6 -446 11 -69 -2 -153 -28 -183 -13 -14 -37 -27
-59 -31 l-38 -6 -2 254 -3 254 -312 3 -313 2 0 -232 c0 -128 -4 -238 -8 -244
-12 -19 -49 -34 -81 -34 l-31 0 0 555 0 555 42 0 c24 0 49 -7 60 -17z"/>
<path d="M7841 12965 c-30 -9 -57 -18 -60 -21 -12 -11 -13 -162 -2 -182 8 -15
25 -23 59 -28 86 -12 124 -42 215 -171 100 -142 125 -156 311 -174 l127 -12
35 -75 c44 -97 89 -151 155 -187 46 -25 67 -30 144 -33 50 -1 110 1 134 5 51
10 55 17 66 137 l7 74 -81 27 c-125 41 -167 74 -221 175 -39 74 -52 88 -95
112 -55 29 -128 46 -254 56 -59 5 -86 11 -91 22 -5 8 -22 45 -39 82 -36 77
-99 146 -162 179 -57 29 -171 35 -248 14z"/>
<path d="M6036 12578 c-17 -29 -21 -52 -46 -276 -11 -101 -24 -191 -29 -201
-6 -10 -58 -37 -118 -61 -156 -62 -272 -120 -310 -156 -48 -46 -36 -69 56
-114 297 -142 356 -175 370 -205 9 -19 17 -89 22 -202 9 -202 26 -279 63 -289
53 -13 98 25 309 259 94 104 86 103 296 52 232 -55 303 -58 315 -11 9 35 -16
94 -78 190 -69 106 -136 238 -136 269 0 23 95 203 165 312 75 118 80 152 24
175 -34 14 -51 12 -249 -35 -63 -15 -146 -28 -184 -29 l-68 -1 -147 153 c-187
196 -223 220 -255 170z"/>
<path d="M9619 12072 c-24 -16 -85 -73 -136 -128 -50 -54 -106 -115 -124 -135
-44 -48 -68 -59 -122 -59 -45 0 -181 25 -292 54 -32 9 -80 16 -106 16 -93 0
-101 -50 -26 -166 60 -93 164 -285 172 -316 7 -28 -57 -161 -139 -287 -76
-115 -93 -174 -61 -201 23 -19 160 -6 300 29 212 53 195 55 273 -25 37 -38 98
-105 136 -148 85 -96 138 -136 181 -136 53 0 66 41 76 239 11 216 16 247 42
275 12 13 101 61 197 105 222 104 223 104 234 135 8 21 5 30 -15 52 -26 28
-167 99 -326 164 -122 50 -116 38 -138 263 -18 185 -31 255 -53 280 -20 22
-20 22 -73 -11z"/>
<path d="M8130 11651 c-51 -16 -90 -42 -90 -60 0 -15 -11 -19 -62 -24 -35 -3
-85 -1 -112 4 -60 11 -149 -2 -204 -30 -53 -27 -96 -71 -149 -153 l-43 -68
-57 7 c-32 5 -101 8 -153 7 -83 0 -102 -4 -148 -27 -90 -47 -162 -137 -162
-204 0 -62 84 -147 146 -147 25 0 44 9 72 36 69 66 151 90 314 92 l97 1 68 75
c37 41 82 89 100 107 l32 33 123 0 c137 0 209 15 268 54 64 42 120 140 120
208 0 36 -24 83 -45 92 -22 8 -83 6 -115 -3z"/>
<path d="M8315 10824 c-44 -36 -113 -86 -153 -111 -70 -45 -74 -50 -116 -137
-52 -110 -81 -146 -151 -186 -128 -73 -195 -226 -133 -305 22 -29 89 -64 121
-65 11 0 53 36 97 83 54 57 98 93 144 117 64 34 68 38 123 138 59 108 97 149
144 159 69 14 159 135 159 215 0 47 -27 129 -48 146 -9 6 -36 12 -61 11 -41 0
-55 -7 -126 -65z"/>
<path d="M6620 10567 c-30 -24 -101 -96 -157 -159 -118 -132 -138 -148 -190
-148 -41 0 -205 31 -293 55 -30 8 -81 15 -112 15 -50 0 -60 -3 -74 -25 -20
-30 -13 -53 35 -125 62 -93 181 -315 181 -338 0 -28 -78 -185 -137 -276 -87
-132 -101 -199 -46 -212 41 -11 139 3 295 41 80 19 157 35 171 35 35 0 65 -28
187 -170 150 -174 229 -219 265 -150 19 37 34 148 35 260 1 119 15 210 37 230
10 10 106 59 213 109 179 85 230 117 230 143 0 36 -127 110 -324 188 -60 24
-117 51 -127 61 -11 11 -20 49 -28 120 -40 349 -48 381 -86 387 -12 1 -43 -16
-75 -41z"/>
<path d="M7810 9324 c-19 -9 -161 -67 -315 -129 -154 -63 -386 -157 -515 -210
-129 -53 -273 -112 -320 -131 -47 -19 -164 -65 -260 -101 -192 -72 -307 -125
-375 -174 -56 -40 -111 -120 -124 -179 -12 -54 -14 -160 -3 -160 4 0 46 16 92
36 47 19 101 42 120 49 19 7 85 34 145 60 61 25 182 75 270 111 175 72 325
134 395 164 25 11 178 74 340 140 162 66 315 129 340 140 25 11 90 38 145 60
169 69 168 68 162 92 -4 12 -16 72 -28 135 -12 62 -25 113 -28 113 -3 -1 -22
-8 -41 -16z"/>
<path d="M2785 6527 c-3 -6 -3 -68 -1 -137 2 -69 5 -169 5 -224 l1 -98 168 4
c195 6 243 18 307 82 48 49 81 142 72 202 -13 80 -94 144 -214 169 -88 19
-332 20 -338 2z"/>
<path d="M7343 6543 l-63 -4 0 -223 0 -223 61 -7 c235 -24 412 18 471 111 19
32 23 51 23 125 0 72 -3 91 -21 115 -70 94 -192 121 -471 106z"/>
<path d="M11705 6553 c-241 -34 -395 -212 -395 -455 0 -255 149 -440 386 -479
191 -31 387 68 464 234 81 172 57 406 -57 545 -86 105 -264 175 -398 155z"/>
<path d="M9114 6444 c-9 -21 -63 -146 -120 -278 -58 -131 -104 -240 -102 -241
2 -1 117 -6 257 -10 l253 -7 -7 23 c-4 12 -38 86 -75 163 -36 78 -91 193 -120
256 -30 63 -57 119 -62 124 -4 5 -15 -8 -24 -30z"/>
<path d="M11703 4835 c-74 -21 -128 -50 -180 -98 -63 -58 -97 -112 -122 -191
-54 -174 0 -371 135 -494 90 -83 156 -107 289 -106 90 0 106 3 167 31 163 76
258 228 258 413 0 180 -100 347 -255 425 -50 25 -72 30 -149 32 -58 2 -110 -3
-143 -12z"/>
<path d="M8081 4668 c-64 -134 -171 -398 -171 -423 0 -13 31 -15 245 -15 190
0 245 3 245 13 -1 22 -237 541 -248 545 -6 2 -38 -52 -71 -120z"/>
</g>
</svg>
